<?xml version="1.0" encoding="utf-8"?>
<!-- Generator: Adobe Illustrator 16.0.0, SVG Export Plug-In . SVG Version: 6.00 Build 0)  -->
<!DOCTYPE svg PUBLIC "-//W3C//DTD SVG 1.1//EN" "http://www.w3.org/Graphics/SVG/1.1/DTD/svg11.dtd">
<svg version="1.1" id="bold" xmlns="http://www.w3.org/2000/svg" xmlns:xlink="http://www.w3.org/1999/xlink" x="0px" y="0px"
	 width="20.967px" height="17.473px" viewBox="0 0 20.967 17.473" enable-background="new 0 0 20.967 17.473" xml:space="preserve">
<g>
	<path fill="#FFFFFF" d="M13.104,3.932c-0.482,0-0.875-0.391-0.875-0.874v-1.31H8.736v1.31c0,0.482-0.391,0.874-0.874,0.874
		c-0.483,0-0.874-0.391-0.874-0.874v-1.31C6.988,0.784,7.772,0,8.735,0h3.495c0.963,0,1.748,0.784,1.748,1.748v1.31
		C13.978,3.541,13.587,3.932,13.104,3.932z"/>
	<path fill="#FFFFFF" d="M11.104,11.69c-0.159,0.063-0.384,0.104-0.622,0.104c-0.236,0-0.463-0.043-0.673-0.122L0,8.406v6.665
		c0,1.328,1.075,2.402,2.402,2.402h16.164c1.328,0,2.401-1.074,2.401-2.402V8.406L11.104,11.69z"/>
	<path fill="#FFFFFF" d="M20.967,5.024v2L10.693,10.45c-0.07,0.024-0.14,0.033-0.209,0.033c-0.07,0-0.14-0.009-0.21-0.033L0,7.024
		v-2c0-1.328,1.075-2.4,2.402-2.4h16.164C19.894,2.622,20.967,3.696,20.967,5.024z"/>
</g>
</svg>
