<?xml version="1.0" encoding="utf-8"?>
<!-- Generator: Adobe Illustrator 16.0.0, SVG Export Plug-In . SVG Version: 6.00 Build 0)  -->
<!DOCTYPE svg PUBLIC "-//W3C//DTD SVG 1.1//EN" "http://www.w3.org/Graphics/SVG/1.1/DTD/svg11.dtd">
<svg version="1.1" id="Layer_1" xmlns="http://www.w3.org/2000/svg" xmlns:xlink="http://www.w3.org/1999/xlink" x="0px" y="0px"
	 width="27px" height="27px" viewBox="0 0 27 27" enable-background="new 0 0 27 27" xml:space="preserve">
<path fill="#5856D6" d="M27,22c0,2.762-2.238,5-5,5H5c-2.761,0-5-2.238-5-5V5c0-2.761,2.239-5,5-5h17c2.762,0,5,2.239,5,5V22z"/>
<g>
	<g>
		<path fill-rule="evenodd" clip-rule="evenodd" fill="#FFFFFF" d="M4.133,19.869c-0.432-1.524,0.242-2.56,1.221-3.486
			c2.662-2.515,7.203-2.042,9.321,0.934c0.496,0.695,0.558,1.431,0.461,2.197c-0.021,0.159-0.441,0.378-0.678,0.382
			c-3.256,0.024-6.512,0.018-9.769,0.014C4.509,19.909,4.327,19.884,4.133,19.869z"/>
		<path fill-rule="evenodd" clip-rule="evenodd" fill="#FFFFFF" d="M16.071,19.853c0.417-1.861-0.603-3.116-1.791-4.288
			c2.838-1.729,7.012-0.574,8.463,2.365c0.262,0.529,0.174,1.229,0.257,1.923C20.651,19.853,18.43,19.853,16.071,19.853z"/>
		<path fill-rule="evenodd" clip-rule="evenodd" fill="#FFFFFF" d="M17.28,7.087c1.669-0.008,3.021,1.327,3.017,2.979
			c-0.003,1.643-1.375,3-3.023,2.988c-1.614-0.012-2.95-1.337-2.977-2.955C14.269,8.454,15.615,7.095,17.28,7.087z"/>
		<path fill-rule="evenodd" clip-rule="evenodd" fill="#FFFFFF" d="M9.652,7.087c1.606,0.022,2.958,1.393,2.947,2.988
			c-0.011,1.629-1.423,3.006-3.053,2.979C7.951,13.027,6.591,11.641,6.6,10.05C6.608,8.418,8.002,7.064,9.652,7.087z"/>
	</g>
</g>
</svg>
