<svg xmlns="http://www.w3.org/2000/svg" width="27" height="27" viewBox="0 0 38 38">
  <g id="Group_1" data-name="Group 1" transform="translate(-20 -82)">
    <rect id="Rounded_Rectangle_29" data-name="Rounded Rectangle 29" width="38" height="38" rx="7" transform="translate(20 82)" fill="#fe9500"/>
    <path id="Shape_1" data-name="Shape 1" d="M30.719,111.291a1.02,1.02,0,0,1-.788-.374,12.353,12.353,0,0,1-2.805-7.85v-.021a12.354,12.354,0,0,1,3.592-8.719l0,0,0,0a12.255,12.255,0,0,1,20.945,8.735,12.349,12.349,0,0,1-2.805,7.86,1.02,1.02,0,0,1-.788.374Zm.5-2.058H47.577a10.275,10.275,0,0,0,1.994-5.146H46.553a1.029,1.029,0,0,1,0-2.057h3.018a10.278,10.278,0,0,0-2.258-5.485l-.687.691a1.017,1.017,0,0,1-1.446,0,1.033,1.033,0,0,1,0-1.455l.687-.691a10.15,10.15,0,0,0-5.449-2.272v3.037a1.022,1.022,0,1,1-2.045,0V92.818a10.139,10.139,0,0,0-5.449,2.272l.687.691a1.035,1.035,0,0,1,0,1.455,1.017,1.017,0,0,1-1.446,0l-.687-.69a10.281,10.281,0,0,0-2.257,5.484h3.017a1.029,1.029,0,0,1,0,2.057H29.221A10.262,10.262,0,0,0,31.215,109.233Zm5.465-7.027,5.783-2.911-2.892,5.822Z" fill="#fff"/>
  </g>
</svg>
