<?xml version="1.0" encoding="utf-8"?>
<!-- Generator: Adobe Illustrator 16.0.0, SVG Export Plug-In . SVG Version: 6.00 Build 0)  -->
<!DOCTYPE svg PUBLIC "-//W3C//DTD SVG 1.1//EN" "http://www.w3.org/Graphics/SVG/1.1/DTD/svg11.dtd">
<svg version="1.1" id="Layer_1" xmlns="http://www.w3.org/2000/svg" xmlns:xlink="http://www.w3.org/1999/xlink" x="0px" y="0px"
	 width="27px" height="27px" viewBox="0 0 27 27" enable-background="new 0 0 27 27" xml:space="preserve">
<path fill="#4DD965" d="M27,22c0,2.762-2.238,5-5,5H5c-2.761,0-5-2.238-5-5V5c0-2.761,2.239-5,5-5h17c2.762,0,5,2.239,5,5V22z"/>
<g>
	<path fill="#FFFFFF" d="M7.388,10.745c0.008-0.497,0.263-0.748,0.759-0.754c0.684-0.012,1.367,0.002,2.051-0.004
		c0.316-0.005,0.492,0.122,0.52,0.448c0.122,1.45,0.117,2.904,0.004,4.352c-0.043,0.574-0.142,0.619-0.716,0.622
		c-0.568,0.003-1.134,0.007-1.703-0.002c-0.611-0.005-0.912-0.302-0.918-0.909c-0.005-0.609,0-1.222,0-1.831
		C7.385,12.025,7.378,11.384,7.388,10.745z"/>
	<path fill="#FFFFFF" d="M8.218,19.674c1.569-0.87,2.599-2.214,3.329-3.814c0.15-0.329,0.347-0.514,0.722-0.51
		c0.99,0.007,1.982,0.001,2.972,0.001c0.258,0,0.47,0.081,0.663,0.274c1.736,1.755,2.879,3.857,3.665,6.175
		c0.147,0.425-0.048,0.687-0.496,0.695c-0.625,0.009-1.252-0.004-1.877,0.005c-0.293,0.004-0.445-0.138-0.554-0.396
		c-0.225-0.536-0.455-1.071-0.72-1.589c-0.53-1.038-1.176-2.002-2.02-2.814c-0.046,0.03-0.077,0.041-0.093,0.062
		c-0.04,0.062-0.073,0.127-0.107,0.188c-0.964,1.793-2.343,3.177-4.088,4.205c-0.509,0.301-0.733,0.225-0.984-0.32
		c-0.214-0.462-0.416-0.931-0.634-1.389C7.836,20.114,7.889,19.858,8.218,19.674z"/>
	<path fill="#FFFFFF" d="M11.295,6.941c-0.002-0.032-0.009-0.061-0.009-0.092c0.006-1.298,1.065-2.347,2.377-2.349
		c0.91-0.002,1.661,0.489,2.047,1.229l1.77-0.259c0.145-0.022,0.279,0.079,0.301,0.225s-0.079,0.282-0.225,0.303l-1.644,0.242
		c0,0,0,0,0,0.001l-0.018,0.003c0.203,0.366,0.318,0.791,0.318,1.253c0,1.406-1.082,2.491-2.484,2.492
		c-1.356,0.002-2.503-1.148-2.497-2.503C11.233,7.297,11.254,7.117,11.295,6.941L11.295,6.941z"/>
	<path fill="#FFFFFF" d="M18.153,9.869c0.382,0.355,0.781,0.693,1.178,1.032c0.36,0.31,0.37,0.594,0.04,0.958
		c-0.419,0.463-0.831,0.932-1.239,1.404c-0.435,0.503-0.927,0.872-1.64,0.84c-0.479-0.019-0.959-0.003-1.439-0.003
		c-0.564-0.002-1.134,0.015-1.7-0.006c-0.764-0.026-1.322-0.624-1.334-1.394c-0.015-0.772,0.48-1.302,1.247-1.412
		c0.812-0.119,1.625-0.052,2.437-0.065c0.269-0.004,0.475-0.077,0.65-0.279c0.316-0.36,0.644-0.709,0.972-1.06
		C17.591,9.597,17.857,9.597,18.153,9.869z"/>
</g>
</svg>
