<?xml version="1.0" encoding="utf-8"?>
<!-- Generator: Adobe Illustrator 16.0.0, SVG Export Plug-In . SVG Version: 6.00 Build 0)  -->
<!DOCTYPE svg PUBLIC "-//W3C//DTD SVG 1.1//EN" "http://www.w3.org/Graphics/SVG/1.1/DTD/svg11.dtd">
<svg version="1.1" id="Layer_1" xmlns="http://www.w3.org/2000/svg" xmlns:xlink="http://www.w3.org/1999/xlink" x="0px" y="0px"
	 width="27px" height="27px" viewBox="0 0 27 27" enable-background="new 0 0 27 27" xml:space="preserve">
<path fill="#007AFF" d="M27,22c0,2.762-2.238,5-5,5H5c-2.761,0-5-2.238-5-5V5c0-2.761,2.239-5,5-5h17c2.762,0,5,2.239,5,5V22z"/>
<g>
	<g>
		<path fill="#F3F3F7" d="M18.735,23.936c-0.402-0.115-0.823-0.185-1.204-0.351c-1.589-0.699-2.502-2.378-2.252-4.082
			c0.252-1.712,1.597-3.042,3.315-3.282c2.133-0.295,4.069,1.191,4.369,3.352c0.291,2.085-1.22,4.04-3.341,4.326
			c-0.037,0.005-0.074,0.023-0.113,0.037C19.253,23.936,18.993,23.936,18.735,23.936z M18.752,20.729
			c-0.35-0.279-0.681-0.546-1.019-0.811c-0.295-0.23-0.654-0.199-0.868,0.066c-0.215,0.268-0.165,0.63,0.127,0.863
			c0.465,0.377,0.932,0.749,1.4,1.122c0.333,0.264,0.644,0.232,0.928-0.089c0.416-0.467,0.832-0.934,1.246-1.398
			c0.36-0.407,0.728-0.807,1.078-1.223c0.303-0.361,0.134-0.874-0.315-0.974c-0.262-0.06-0.459,0.054-0.627,0.246
			C20.059,19.259,19.413,19.984,18.752,20.729z"/>
		<path fill="#F3F3F7" d="M12.907,3.066c0.541,0.167,0.833,0.522,0.855,1.098c0.009,0.212,0.16,0.357,0.381,0.381
			c0.168,0.019,0.338,0.01,0.509,0.016c0.504,0.014,0.875,0.377,0.886,0.873c0.016,0.486-0.35,0.897-0.854,0.903
			c-1.316,0.013-2.631,0.013-3.948,0C10.22,6.331,9.869,5.931,9.88,5.421c0.013-0.492,0.383-0.85,0.896-0.86
			c0.157-0.004,0.313,0.004,0.467-0.01c0.245-0.023,0.399-0.161,0.411-0.4c0.027-0.568,0.318-0.915,0.845-1.085
			C12.636,3.066,12.771,3.066,12.907,3.066z M13.152,4.112c0.002-0.243-0.188-0.439-0.431-0.445
			c-0.251-0.005-0.459,0.192-0.461,0.438c-0.002,0.236,0.196,0.44,0.434,0.448C12.943,4.561,13.15,4.362,13.152,4.112z"/>
		<path fill="#F3F3F7" d="M7.496,8.45c0,3.974,0,7.924,0,11.898c2.286,0,4.564,0,6.823,0c0.114,0.511,0.222,0.998,0.334,1.494
			c-0.042,0.003-0.1,0.009-0.158,0.009c-2.404,0-4.809,0-7.214,0c-0.624-0.002-1.092-0.334-1.236-0.887
			c-0.036-0.137-0.042-0.282-0.042-0.424c-0.001-4.693,0-9.388-0.002-14.081c0-0.471,0.144-0.868,0.527-1.155
			C6.626,5.23,6.758,5.16,6.876,5.159c0.8-0.014,1.6-0.007,2.399-0.007C9.287,5.352,9.277,5.542,9.31,5.725
			c0.13,0.715,0.723,1.21,1.45,1.212c1.278,0.005,2.555,0.003,3.831,0c0.93,0,1.567-0.666,1.538-1.597c-0.002-0.055,0-0.107,0-0.178
			c0.055-0.004,0.105-0.015,0.156-0.014c0.659,0.008,1.32-0.016,1.976,0.039C19.019,5.25,19.42,5.74,19.42,6.497
			c0.001,2.853,0,5.705,0,8.558c0,0.074,0,0.147,0,0.203c-0.508,0.05-0.991,0.098-1.491,0.147c0-2.302,0-4.622,0-6.956
			C14.442,8.45,10.978,8.45,7.496,8.45z"/>
		<path fill="#F3F3F7" d="M14.039,13.5c-0.754,0-1.507,0-2.261,0c-0.331,0-0.416-0.095-0.415-0.452c0-0.35,0.087-0.442,0.425-0.442
			c1.507,0,3.014,0,4.522-0.001c0.162,0,0.333,0.002,0.39,0.186c0.062,0.2,0.097,0.425-0.05,0.599
			c-0.061,0.074-0.202,0.106-0.309,0.107C15.573,13.504,14.807,13.5,14.039,13.5z"/>
		<path fill="#F3F3F7" d="M14.048,10.814c-0.753,0-1.507,0-2.259,0c-0.341,0-0.425-0.089-0.425-0.441
			c0-0.354,0.089-0.455,0.415-0.455c1.514-0.001,3.028,0,4.541-0.001c0.165,0,0.333,0.015,0.382,0.197
			c0.057,0.2,0.099,0.425-0.06,0.599c-0.059,0.066-0.191,0.095-0.291,0.097C15.585,10.818,14.816,10.814,14.048,10.814z"/>
		<path fill="#F3F3F7" d="M13.305,14.994c0.515,0,1.031-0.002,1.546,0c0.298,0.002,0.385,0.091,0.388,0.391
			c0.003,0.441-0.057,0.502-0.503,0.502c-0.977,0-1.952,0-2.93,0c-0.158,0-0.354,0.012-0.394-0.17
			c-0.042-0.186-0.027-0.398,0.02-0.586c0.017-0.066,0.199-0.128,0.307-0.13C12.262,14.986,12.784,14.994,13.305,14.994z"/>
		<path fill="#F3F3F7" d="M12.988,18.563c-0.42,0-0.842,0.004-1.263,0c-0.253-0.002-0.355-0.106-0.361-0.357
			c-0.002-0.068-0.004-0.138,0-0.205c0.011-0.206,0.112-0.325,0.314-0.325c0.882-0.008,1.764-0.008,2.647-0.002
			c0.202,0.002,0.306,0.116,0.32,0.32c0.006,0.082,0.006,0.164,0,0.247c-0.013,0.216-0.116,0.318-0.335,0.32
			C13.871,18.567,13.43,18.563,12.988,18.563z"/>
		<path fill="#F3F3F7" d="M9.461,10.389c0.271-0.306,0.533-0.6,0.793-0.894c0.046-0.05,0.09-0.103,0.139-0.149
			c0.114-0.109,0.243-0.125,0.366-0.022c0.13,0.106,0.15,0.252,0.042,0.378c-0.364,0.421-0.735,0.835-1.109,1.247
			c-0.105,0.116-0.242,0.128-0.368,0.032c-0.231-0.178-0.458-0.359-0.683-0.547c-0.127-0.106-0.145-0.242-0.048-0.38
			c0.089-0.127,0.255-0.143,0.398-0.037C9.148,10.133,9.298,10.258,9.461,10.389z"/>
		<path fill="#F3F3F7" d="M9.461,18.13c0.307-0.343,0.596-0.668,0.884-0.992c0.105-0.118,0.223-0.181,0.376-0.099
			c0.158,0.085,0.197,0.27,0.072,0.414c-0.359,0.417-0.726,0.826-1.096,1.235c-0.111,0.123-0.251,0.129-0.382,0.026
			c-0.226-0.175-0.449-0.351-0.669-0.534c-0.132-0.11-0.148-0.285-0.044-0.396c0.116-0.126,0.252-0.126,0.384-0.029
			C9.143,17.872,9.292,17.997,9.461,18.13z"/>
		<path fill="#F3F3F7" d="M9.462,13.04c0.267-0.3,0.522-0.589,0.779-0.877c0.05-0.056,0.097-0.113,0.152-0.164
			c0.114-0.108,0.243-0.126,0.366-0.023c0.129,0.108,0.15,0.251,0.042,0.379c-0.365,0.42-0.736,0.835-1.11,1.249
			c-0.112,0.124-0.253,0.121-0.384,0.018c-0.218-0.172-0.437-0.346-0.652-0.522c-0.136-0.11-0.162-0.25-0.061-0.394
			c0.094-0.133,0.258-0.14,0.413-0.022C9.157,12.795,9.306,12.915,9.462,13.04z"/>
		<path fill="#F3F3F7" d="M9.462,15.577c0.272-0.309,0.533-0.6,0.794-0.893c0.046-0.052,0.087-0.105,0.137-0.151
			c0.123-0.111,0.257-0.124,0.382-0.01c0.116,0.109,0.129,0.247,0.025,0.365c-0.364,0.421-0.733,0.836-1.106,1.247
			c-0.113,0.124-0.25,0.13-0.383,0.026c-0.224-0.179-0.448-0.353-0.666-0.535c-0.132-0.11-0.148-0.284-0.046-0.395
			c0.115-0.126,0.249-0.133,0.382-0.033C9.14,15.317,9.29,15.44,9.462,15.577z"/>
	</g>
</g>
</svg>
