<?xml version="1.0" encoding="utf-8"?>
<!-- Generator: Adobe Illustrator 16.0.0, SVG Export Plug-In . SVG Version: 6.00 Build 0)  -->
<!DOCTYPE svg PUBLIC "-//W3C//DTD SVG 1.1//EN" "http://www.w3.org/Graphics/SVG/1.1/DTD/svg11.dtd">
<svg version="1.1" id="Layer_1" xmlns="http://www.w3.org/2000/svg" xmlns:xlink="http://www.w3.org/1999/xlink" x="0px" y="0px"
	 width="27px" height="27px" viewBox="0 0 27 27" enable-background="new 0 0 27 27" xml:space="preserve">
<g>
	<path fill="#5856D6" d="M27,22c0,2.762-2.238,5-5,5H5c-2.761,0-5-2.238-5-5V5c0-2.761,2.239-5,5-5h17c2.762,0,5,2.239,5,5V22z"/>
	<g>
		<g>
			<path fill-rule="evenodd" clip-rule="evenodd" fill="#FFFFFF" d="M8.845,10.182c0.16-0.043,0.234,0.034,0.296,0.168
				c0.152,0.327,0.32,0.647,0.481,0.971c0.047,0.094,0.078,0.196,0.221,0.192c0.144-0.005,0.146-0.125,0.183-0.205
				c0.171-0.381,0.337-0.765,0.491-1.153c0.058-0.145,0.13-0.196,0.292-0.195c1.454,0.007,2.908,0.003,4.361,0.003
				c1.006,0,2.012,0.006,3.016-0.003c0.189-0.001,0.238,0.065,0.254,0.241c0.098,0.97,0.209,1.938,0.314,2.907
				c0.127,1.161,0.25,2.322,0.379,3.482c0.1,0.899,0.207,1.797,0.311,2.694c0.016,0.147,0.002,0.304,0.041,0.446
				c0.059,0.225-0.055,0.26-0.234,0.285c-1.445,0.196-2.887,0.396-4.33,0.599c-1.191,0.168-2.382,0.339-3.571,0.511
				c-0.197,0.028-0.394,0.059-0.587,0.105c-0.415,0.098-0.784,0.017-1.159-0.191c-0.633-0.351-1.287-0.663-1.937-0.983
				c-0.137-0.067-0.18-0.144-0.161-0.296c0.09-0.726,0.167-1.453,0.25-2.18c0.075-0.655,0.155-1.312,0.229-1.969
				c0.068-0.598,0.129-1.197,0.198-1.796c0.075-0.649,0.157-1.298,0.233-1.947c0.057-0.48,0.109-0.959,0.158-1.439
				C8.59,10.256,8.623,10.114,8.845,10.182z"/>
			<path fill-rule="evenodd" clip-rule="evenodd" fill="#FFFFFF" d="M16.393,8.345c0,0.321-0.006,0.642,0.004,0.962
				c0.002,0.14-0.041,0.191-0.182,0.182c-0.133-0.008-0.254,0.014-0.25-0.189c0.006-0.62,0.006-1.241-0.004-1.86
				c-0.012-0.773-0.764-1.396-1.525-1.276c-0.683,0.107-1.153,0.654-1.157,1.348c-0.002,0.606-0.004,1.212,0.001,1.818
				c0.002,0.145-0.064,0.171-0.182,0.158c-0.102-0.012-0.248,0.048-0.244-0.145c0.015-0.712-0.057-1.429,0.03-2.136
				c0.089-0.715,0.537-1.185,1.21-1.395c1.068-0.333,2.139,0.358,2.281,1.466c0.045,0.351,0.008,0.711,0.008,1.068
				C16.387,8.345,16.389,8.345,16.393,8.345z"/>
			<path fill-rule="evenodd" clip-rule="evenodd" fill="#FFFFFF" d="M12.771,6.192c-0.101,0.261-0.23,0.432-0.479,0.536
				c-0.559,0.234-0.796,0.695-0.796,1.289c0,0.428-0.008,0.855,0.003,1.282c0.004,0.18-0.087,0.191-0.225,0.191
				c-0.133-0.001-0.208-0.023-0.205-0.188c0.011-0.499-0.001-0.998,0.009-1.496c0.018-0.801,0.739-1.554,1.536-1.615
				C12.661,6.189,12.708,6.192,12.771,6.192z"/>
			<path fill-rule="evenodd" clip-rule="evenodd" fill="#FFFFFF" d="M14.598,8.539c0,0.222,0,0.442,0,0.663
				c-0.002,0.142,0.047,0.292-0.203,0.294c-0.266,0.003-0.221-0.155-0.221-0.308c0-0.413-0.012-0.825,0-1.238
				c0.01-0.284-0.074-0.53-0.223-0.764c-0.087-0.135,0.012-0.39,0.162-0.419c0.07-0.014,0.1,0.042,0.135,0.086
				c0.207,0.27,0.334,0.575,0.346,0.917c0.012,0.255,0.002,0.513,0.002,0.768H14.598z"/>
		</g>
	</g>
</g>
</svg>
