<?xml version="1.0" encoding="utf-8"?>
<!-- Generator: Adobe Illustrator 16.0.0, SVG Export Plug-In . SVG Version: 6.00 Build 0)  -->
<!DOCTYPE svg PUBLIC "-//W3C//DTD SVG 1.1//EN" "http://www.w3.org/Graphics/SVG/1.1/DTD/svg11.dtd">
<svg version="1.1" id="Layer_1" xmlns="http://www.w3.org/2000/svg" xmlns:xlink="http://www.w3.org/1999/xlink" x="0px" y="0px"
	 width="27px" height="27px" viewBox="0 0 27 27" enable-background="new 0 0 27 27" xml:space="preserve">
<g>
	<path fill="#4DD965" d="M27,22c0,2.762-2.238,5-5,5H5c-2.761,0-5-2.238-5-5V5c0-2.761,2.239-5,5-5h17c2.762,0,5,2.239,5,5V22z"/>
	<g>
		<path fill="#FFFFFF" d="M14.828,5c-2.619,0-4.748,2.13-4.748,4.748s2.129,4.748,4.748,4.748c2.617,0,4.748-2.13,4.748-4.748
			S17.445,5,14.828,5z M15.326,11.906v0.104c0,0.274-0.223,0.498-0.498,0.498c-0.274,0-0.498-0.224-0.498-0.498v-0.048
			c-0.229-0.04-0.439-0.127-0.704-0.3c-0.23-0.15-0.294-0.459-0.144-0.689c0.15-0.23,0.459-0.295,0.689-0.144
			c0.242,0.158,0.321,0.171,0.653,0.168c0.32-0.002,0.448-0.253,0.474-0.401c0.021-0.133-0.004-0.31-0.25-0.397
			c-0.379-0.135-0.826-0.305-1.138-0.55c-0.686-0.537-0.476-1.762,0.419-2.088V7.49c0-0.275,0.224-0.498,0.498-0.498
			c0.275,0,0.498,0.223,0.498,0.498v0.041c0.33,0.097,0.562,0.303,0.562,0.303c0.201,0.186,0.214,0.499,0.028,0.701
			c-0.185,0.203-0.499,0.217-0.701,0.031c-0.13-0.094-0.326-0.136-0.531-0.073c-0.135,0.04-0.17,0.179-0.178,0.219
			c-0.017,0.087,0.007,0.145,0.019,0.153c0.204,0.16,0.608,0.307,0.856,0.395C16.693,9.725,16.533,11.47,15.326,11.906z"/>
		<path fill="#FFFFFF" d="M19.396,14.7l-4.836,1.424c0.153,0.375,0.235,0.782,0.235,1.205v0.175c0,1.241-1.282,2.066-2.411,1.559
			l-2.535-1.141c-0.25-0.113-0.363-0.407-0.25-0.659c0.113-0.251,0.408-0.362,0.659-0.25l2.535,1.142
			c0.469,0.211,1.006-0.129,1.006-0.65v-0.175c0-0.856-0.519-1.612-1.285-1.958l-2.19-0.984c-0.853-0.384-1.829-0.379-2.675,0.011
			L5.292,15.47C5.114,15.551,5,15.728,5,15.924v5.299c0,0.376,0.357,0.6,0.675,0.479l3.316-1.263l3.944,1.38
			c0.896,0.314,1.882,0.22,2.704-0.268l5.365-3.16C21.618,18.026,22,17.358,22,16.646C22,15.295,20.703,14.314,19.396,14.7
			L19.396,14.7z"/>
	</g>
</g>
</svg>
