<?xml version="1.0" encoding="utf-8"?>
<!-- Generator: Adobe Illustrator 16.0.0, SVG Export Plug-In . SVG Version: 6.00 Build 0)  -->
<!DOCTYPE svg PUBLIC "-//W3C//DTD SVG 1.1//EN" "http://www.w3.org/Graphics/SVG/1.1/DTD/svg11.dtd">
<svg version="1.1" id="Layer_1" xmlns="http://www.w3.org/2000/svg" xmlns:xlink="http://www.w3.org/1999/xlink" x="0px" y="0px"
	 width="27px" height="27px" viewBox="0 0 27 27" enable-background="new 0 0 27 27" xml:space="preserve">
<path fill="#007AFF" d="M27,22c0,2.762-2.238,5-5,5H5c-2.761,0-5-2.238-5-5V5c0-2.761,2.239-5,5-5h17c2.762,0,5,2.239,5,5V22z"/>
<path fill="#FFFFFF" d="M19.3,3.9H7.699C6.486,3.9,5.5,4.887,5.5,6.101v14.8c0,1.212,0.986,2.2,2.199,2.2H19.3
	c1.213,0,2.2-0.988,2.2-2.202V6.101C21.5,4.887,20.513,3.9,19.3,3.9z M12.5,14.3v-3.938c1.92,0.292,3.399,1.939,3.399,3.938
	c0,2.206-1.793,4-4,4c-0.886,0-1.698-0.298-2.362-0.79l2.786-2.785C12.437,14.612,12.5,14.46,12.5,14.3L12.5,14.3z M11.301,10.361
	v3.691L8.69,16.662C8.199,15.998,7.9,15.187,7.9,14.3C7.9,12.3,9.38,10.653,11.301,10.361L11.301,10.361z M18.5,20.898h-10
	c-0.332,0-0.601-0.267-0.601-0.599s0.269-0.601,0.601-0.601h10c0.332,0,0.602,0.269,0.602,0.601
	C19.101,20.632,18.831,20.898,18.5,20.898z M18.5,18.3h-1.199c-0.332,0-0.601-0.269-0.601-0.6c0-0.333,0.269-0.6,0.601-0.6H18.5
	c0.332,0,0.602,0.267,0.602,0.6C19.101,18.031,18.831,18.3,18.5,18.3z M18.5,16.102h-1.199c-0.332,0-0.601-0.271-0.601-0.602
	s0.269-0.602,0.601-0.602H18.5c0.332,0,0.602,0.271,0.602,0.602S18.831,16.102,18.5,16.102z M18.5,13.699h-1.199
	c-0.332,0-0.601-0.269-0.601-0.599c0-0.331,0.269-0.601,0.601-0.601H18.5c0.332,0,0.602,0.27,0.602,0.601
	C19.101,13.431,18.831,13.699,18.5,13.699z M18.5,11.5h-1.199c-0.332,0-0.601-0.27-0.601-0.601c0-0.332,0.269-0.599,0.601-0.599
	H18.5c0.332,0,0.602,0.269,0.602,0.599C19.101,11.23,18.831,11.5,18.5,11.5z"/>
</svg>
