<?xml version="1.0" encoding="utf-8"?>
<!-- Generator: Adobe Illustrator 16.0.0, SVG Export Plug-In . SVG Version: 6.00 Build 0)  -->
<!DOCTYPE svg PUBLIC "-//W3C//DTD SVG 1.1//EN" "http://www.w3.org/Graphics/SVG/1.1/DTD/svg11.dtd">
<svg version="1.1" id="Layer_1" xmlns="http://www.w3.org/2000/svg" xmlns:xlink="http://www.w3.org/1999/xlink" x="0px" y="0px"
	 width="27px" height="27px" viewBox="0 0 27 27" enable-background="new 0 0 27 27" xml:space="preserve">
<path fill="#4DD965" d="M27,22c0,2.762-2.238,5-5,5H5c-2.761,0-5-2.238-5-5V5c0-2.761,2.239-5,5-5h17c2.762,0,5,2.239,5,5V22z"/>
<g>
	<g>
		<g>
			<path fill="#FFFFFF" d="M9.373,5.246c-0.326,0-0.59,0.264-0.59,0.59v1.18h1.18v-1.18C9.963,5.51,9.699,5.246,9.373,5.246z"/>
		</g>
	</g>
	<g>
		<g>
			<path fill="#FFFFFF" d="M17.627,5.246c-0.326,0-0.59,0.264-0.59,0.59v1.18h1.18v-1.18C18.217,5.51,17.952,5.246,17.627,5.246z"/>
		</g>
	</g>
	<g>
		<g>
			<path fill="#FFFFFF" d="M19.985,7.016h-1.769v2.357c0,0.326-0.265,0.59-0.59,0.59c-0.326,0-0.59-0.264-0.59-0.59V7.016H9.963
				v2.357c0,0.326-0.264,0.59-0.59,0.59s-0.59-0.264-0.59-0.59V7.016H7.015c-0.977,0-1.769,0.791-1.769,1.768v11.202
				c0,0.977,0.792,1.769,1.769,1.769h12.971c0.977,0,1.769-0.792,1.769-1.769V8.783C21.754,7.807,20.962,7.016,19.985,7.016z
				 M20.574,19.985c0,0.325-0.264,0.589-0.589,0.589H7.015c-0.325,0-0.589-0.264-0.589-0.589V12.32h14.149V19.985z"/>
		</g>
	</g>
	<g>
		<g>
			<path fill="#FFFFFF" d="M17.454,13.673c-0.229-0.229-0.604-0.23-0.834,0l-4.3,4.3l-1.941-1.941c-0.23-0.23-0.604-0.23-0.834,0
				c-0.229,0.23-0.229,0.604,0.001,0.834l2.358,2.358c0.23,0.229,0.604,0.229,0.834,0l4.716-4.717
				C17.685,14.276,17.685,13.903,17.454,13.673z"/>
		</g>
	</g>
</g>
</svg>
