<?xml version="1.0" encoding="utf-8"?>
<!-- Generator: Adobe Illustrator 16.0.0, SVG Export Plug-In . SVG Version: 6.00 Build 0)  -->
<!DOCTYPE svg PUBLIC "-//W3C//DTD SVG 1.1//EN" "http://www.w3.org/Graphics/SVG/1.1/DTD/svg11.dtd">
<svg version="1.1" id="Layer_1" xmlns="http://www.w3.org/2000/svg" xmlns:xlink="http://www.w3.org/1999/xlink" x="0px" y="0px"
	 width="27px" height="27px" viewBox="0 0 27 27" enable-background="new 0 0 27 27" xml:space="preserve">
<path fill="#0D81FF" d="M27,22c0,2.762-2.238,5-5,5H5c-2.761,0-5-2.238-5-5V5c0-2.761,2.239-5,5-5h17c2.762,0,5,2.239,5,5V22z"/>
<g>
	<g>
		<path fill-rule="evenodd" clip-rule="evenodd" fill="#FFFFFF" d="M5.447,19.146c-0.009-0.22,0.078-0.411,0.217-0.584
			c0.373-0.46,0.742-0.923,1.119-1.38c0.083-0.101,0.095-0.177,0.041-0.305c-0.194-0.467-0.375-0.94-0.54-1.418
			c-0.046-0.134-0.104-0.183-0.236-0.203c-0.604-0.096-1.207-0.194-1.808-0.304c-0.463-0.084-0.735-0.421-0.738-0.892
			c-0.002-0.377-0.003-0.755,0-1.133c0.004-0.458,0.279-0.797,0.73-0.878c0.607-0.11,1.217-0.209,1.827-0.307
			c0.123-0.02,0.188-0.062,0.222-0.194c0.163-0.633,0.414-1.232,0.747-1.794c0.059-0.099,0.056-0.166-0.011-0.258
			C6.672,9.024,6.333,8.546,5.994,8.069C5.682,7.63,5.719,7.208,6.1,6.823c0.252-0.254,0.504-0.509,0.76-0.759
			C7.202,5.73,7.638,5.692,8.031,5.967c0.49,0.343,0.977,0.692,1.461,1.044c0.09,0.065,0.156,0.075,0.257,0.015
			c0.568-0.336,1.171-0.591,1.812-0.755C11.671,6.243,11.73,6.2,11.75,6.07c0.092-0.604,0.199-1.206,0.302-1.808
			c0.08-0.468,0.418-0.756,0.895-0.76c0.371-0.003,0.742-0.002,1.113,0c0.488,0.003,0.829,0.284,0.913,0.765
			c0.101,0.576,0.195,1.154,0.284,1.732c0.023,0.156,0.072,0.241,0.245,0.285c0.768,0.199,1.481,0.524,2.14,0.967
			c0.111,0.075,0.19,0.087,0.311,0.008c0.49-0.32,0.987-0.628,1.484-0.938c0.439-0.274,0.86-0.217,1.209,0.165
			c0.241,0.265,0.479,0.533,0.714,0.802c0.341,0.389,0.353,0.817,0.031,1.22c-0.373,0.468-0.749,0.934-1.129,1.396
			c-0.076,0.092-0.084,0.162-0.038,0.275c0.182,0.451,0.354,0.907,0.512,1.367c0.046,0.132,0.105,0.179,0.239,0.2
			c0.598,0.092,1.194,0.192,1.789,0.301c0.452,0.083,0.729,0.419,0.733,0.876c0.004,0.384,0.004,0.768,0,1.152
			c-0.005,0.456-0.28,0.793-0.734,0.876c-0.601,0.109-1.204,0.207-1.808,0.304c-0.116,0.019-0.18,0.055-0.212,0.18
			c-0.164,0.64-0.414,1.245-0.752,1.813c-0.06,0.1-0.052,0.168,0.016,0.261c0.355,0.488,0.705,0.982,1.056,1.476
			c0.321,0.453,0.285,0.867-0.106,1.261c-0.248,0.249-0.495,0.499-0.746,0.745c-0.352,0.347-0.781,0.385-1.185,0.102
			c-0.506-0.355-1.01-0.713-1.508-1.079c-0.107-0.079-0.183-0.077-0.293-0.012c-0.552,0.325-1.14,0.567-1.761,0.727
			c-0.125,0.032-0.179,0.089-0.198,0.216c-0.089,0.572-0.19,1.142-0.28,1.713c-0.088,0.555-0.411,0.841-0.966,0.842
			c-0.358,0.001-0.716,0.003-1.074,0c-0.476-0.005-0.813-0.293-0.894-0.762c-0.104-0.602-0.208-1.204-0.303-1.808
			c-0.018-0.115-0.061-0.168-0.171-0.196c-0.775-0.197-1.497-0.518-2.164-0.959c-0.1-0.066-0.166-0.056-0.259,0.005
			c-0.498,0.318-1,0.631-1.502,0.946c-0.472,0.296-0.884,0.241-1.254-0.169c-0.24-0.266-0.476-0.534-0.714-0.802
			C5.532,19.582,5.441,19.386,5.447,19.146z M9.785,13.508c0.003,2.07,1.683,3.745,3.754,3.741c2.065-0.003,3.749-1.692,3.743-3.757
			c-0.005-2.066-1.69-3.744-3.759-3.741C11.455,9.753,9.782,11.435,9.785,13.508z"/>
	</g>
</g>
</svg>
