<?xml version="1.0" encoding="utf-8"?>
<!-- Generator: Adobe Illustrator 16.0.0, SVG Export Plug-In . SVG Version: 6.00 Build 0)  -->
<!DOCTYPE svg PUBLIC "-//W3C//DTD SVG 1.1//EN" "http://www.w3.org/Graphics/SVG/1.1/DTD/svg11.dtd">
<svg version="1.1" id="Layer_1" xmlns="http://www.w3.org/2000/svg" xmlns:xlink="http://www.w3.org/1999/xlink" x="0px" y="0px"
	 width="27px" height="27px" viewBox="0 0 27 27" enable-background="new 0 0 27 27" xml:space="preserve">
<path fill="#FE2D55" d="M27,22c0,2.762-2.238,5-5,5H5c-2.761,0-5-2.238-5-5V5c0-2.761,2.239-5,5-5h17c2.762,0,5,2.239,5,5V22z"/>
<g>
	<g>
		<path fill="#FFFFFF" d="M15.569,7.973c0.925,0.58,1.573,1.561,1.691,2.7c0.377,0.176,0.795,0.277,1.239,0.277
			c1.62,0,2.934-1.313,2.934-2.933S20.12,5.084,18.5,5.084C16.896,5.085,15.594,6.375,15.569,7.973z M13.648,13.979
			c1.62,0,2.933-1.313,2.933-2.933s-1.313-2.933-2.933-2.933c-1.62,0-2.934,1.313-2.934,2.933
			C10.714,12.666,12.028,13.979,13.648,13.979z M14.892,14.179h-2.489c-2.071,0-3.755,1.686-3.755,3.756v3.044l0.007,0.048
			l0.21,0.065c1.976,0.617,3.693,0.824,5.106,0.824c2.761,0,4.36-0.788,4.459-0.838l0.196-0.099h0.021v-3.045
			C18.647,15.864,16.963,14.179,14.892,14.179z M19.745,11.151h-2.47c-0.027,0.988-0.448,1.878-1.116,2.518
			c1.841,0.547,3.188,2.255,3.188,4.271v0.938c2.438-0.09,3.845-0.781,3.937-0.828l0.196-0.099H23.5v-3.045
			C23.5,12.835,21.815,11.151,19.745,11.151z M8.5,10.951c0.574,0,1.108-0.167,1.56-0.453c0.144-0.938,0.646-1.757,1.365-2.315
			c0.003-0.055,0.008-0.11,0.008-0.165c0-1.621-1.313-2.933-2.933-2.933c-1.62,0-2.933,1.313-2.933,2.933
			C5.567,9.638,6.88,10.951,8.5,10.951z M11.135,13.668c-0.664-0.636-1.084-1.521-1.115-2.503c-0.092-0.007-0.182-0.014-0.276-0.014
			H7.256c-2.071,0-3.756,1.685-3.756,3.755v3.045l0.008,0.047l0.209,0.065c1.585,0.495,3,0.724,4.229,0.795v-0.919
			C7.947,15.924,9.293,14.217,11.135,13.668z"/>
	</g>
</g>
</svg>
