<svg xmlns="http://www.w3.org/2000/svg" width="14" height="14" viewBox="0 0 14 14">
  <defs>
    <style>
      .cls-1 {
        fill: #007aff;
        fill-rule: evenodd;
      }
    </style>
  </defs>
  <path class="cls-1" d="M13.457,5.854l-1.581-.388a5.1,5.1,0,0,0-.333-0.808l0.808-1.346A0.394,0.394,0,0,0,12.3,2.829L11.171,1.7a0.394,0.394,0,0,0-.483-0.055l-1.346.808a5.1,5.1,0,0,0-.808-0.333L8.154,0.542a0.406,0.406,0,0,0-.388-0.3H6.182a0.406,0.406,0,0,0-.388.3L5.413,2.124a5.1,5.1,0,0,0-.808.333L3.259,1.649a0.394,0.394,0,0,0-.483.055L1.651,2.829a0.394,0.394,0,0,0-.055.483L2.4,4.658a5.09,5.09,0,0,0-.333.808l-1.529.388a0.39,0.39,0,0,0-.3.38V7.818a0.39,0.39,0,0,0,.3.38L2.071,8.587a5.094,5.094,0,0,0,.333.808L1.6,10.741a0.394,0.394,0,0,0,.055.483l1.125,1.125a0.394,0.394,0,0,0,.483.056L4.605,11.6a5.1,5.1,0,0,0,.808.333l0.38,1.529a0.406,0.406,0,0,0,.388.3H7.766a0.406,0.406,0,0,0,.388-0.3l0.38-1.529A5.1,5.1,0,0,0,9.342,11.6L10.688,12.4a0.394,0.394,0,0,0,.483-0.056L12.3,11.224a0.394,0.394,0,0,0,.056-0.483L11.543,9.394a5.1,5.1,0,0,0,.333-0.808L13.457,8.2a0.39,0.39,0,0,0,.3-0.38V6.234A0.39,0.39,0,0,0,13.457,5.854ZM6.974,9.006a1.98,1.98,0,1,1,1.98-1.98A1.981,1.981,0,0,1,6.974,9.006Z"/>
</svg>
