<svg xmlns="http://www.w3.org/2000/svg" width="16" height="16" viewBox="0 0 16 16">
  <defs>
    <style>
      .cls-1 {
        fill: #007aff;
        fill-rule: evenodd;
      }
    </style>
  </defs>
  <path class="cls-1" d="M8.819,3.077A3.19,3.19,0,1,1,5.628-.114,3.191,3.191,0,0,1,8.819,3.077ZM9.11,9.592A5.4,5.4,0,0,0,5.636,8.347H5.625A5.385,5.385,0,0,0,1.751,9.97a5.775,5.775,0,0,0-1.6,3.849L9.013,13.8A3.83,3.83,0,0,1,9.11,9.592Zm3.172-1.169a3.318,3.318,0,1,0,2.373.972A3.345,3.345,0,0,0,12.282,8.423Zm1.6,2.723-2.011,1.637a0.245,0.245,0,0,1-.158.058,0.242,0.242,0,0,1-.191-0.09L10.653,11.74a0.253,0.253,0,0,1,.385-0.327l0.7,0.824,1.82-1.482a0.25,0.25,0,0,1,.352.036A0.255,0.255,0,0,1,13.879,11.146Z"/>
</svg>
