<svg xmlns="http://www.w3.org/2000/svg" width="218.451" height="46" viewBox="0 0 218.451 46">
  <g id="Logo" transform="translate(-0.56 -0.382)">
    <path id="Path_1" data-name="Path 1" d="M22.608,1.884a22.067,22.067,0,1,1-8.443,1.687A22.086,22.086,0,0,1,22.608,1.884Z" transform="translate(0 0.327)" fill="#fff" fill-rule="evenodd"/>
    <path id="Path_2" data-name="Path 2" d="M7.409,28.646c0,6,3.7,10.138,10.034,12.952V.382L7.409.515Zm13.558-3.7V15.76c17.32-2.89,23.573,24.957.076,25.819V32.644c7.675.483,8.186-8.594-.076-7.665Z" transform="translate(1.489 0)" fill="#f58220" fill-rule="evenodd"/>
    <path id="Path_3" data-name="Path 3" d="M75.22,9.209a.947.947,0,0,0-1.052-.739H69.82a.948.948,0,0,0-1.052.739l-7.58,26.653c-.123.493,0,.749.436.749H64.77c.407,0,.673-.256.786-.749l1.667-5.685h9.57l1.658,5.685a1.185,1.185,0,0,0,.246.588.758.758,0,0,0,.55.161h3.1c.445,0,.606-.256.483-.749ZM68.039,26.671l3.856-14h.17l3.894,14Z" transform="translate(13.171 1.757)" fill="#fff"/>
    <path id="Path_4" data-name="Path 4" d="M58.188,22.247a4.671,4.671,0,0,0,3.591-4.9V15.17a6.566,6.566,0,0,0-1.8-4.946,6.9,6.9,0,0,0-5.031-1.753H44.582a.654.654,0,0,0-.748.739V35.863a.663.663,0,0,0,.748.748H55.345a6.831,6.831,0,0,0,4.974-1.753,6.566,6.566,0,0,0,1.8-4.946V27.07A5.013,5.013,0,0,0,61,23.659,4.435,4.435,0,0,0,58.188,22.247Zm-10.11-9.712c0-.284.161-.436.483-.436h5.78q3.231,0,3.231,3.155v2.009q0,3.2-3.326,3.193H48.562c-.322,0-.483-.142-.483-.436ZM57.97,29.827c0,2.094-1.1,3.146-3.278,3.146h-6.13c-.322,0-.483-.142-.483-.436V24.4c0-.294.161-.436.483-.436h5.95q3.449,0,3.458,3.146Z" transform="translate(9.406 1.756)" fill="#fff"/>
    <path id="Path_5" data-name="Path 5" d="M93.163,8.471H88.085a6.774,6.774,0,0,0-5.012,1.772A6.812,6.812,0,0,0,81.3,15.255V29.827a6.8,6.8,0,0,0,1.772,4.984,6.746,6.746,0,0,0,5.012,1.8h5.079a6.737,6.737,0,0,0,4.984-1.8,6.7,6.7,0,0,0,1.8-4.984v-2.1a.7.7,0,0,0-.786-.786H96.4c-.5,0-.749.265-.749.786v1.9q0,3.24-3.146,3.24H88.72q-3.155,0-3.155-3.24V15.407c0-2.16,1.052-3.231,3.155-3.231h3.79c2.094,0,3.146,1.071,3.146,3.231v1.9c0,.521.246.786.749.786h2.757a.7.7,0,0,0,.786-.786V15.255a6.707,6.707,0,0,0-1.8-5.012,6.765,6.765,0,0,0-4.984-1.772Z" transform="translate(17.551 1.756)" fill="#fff"/>
    <path id="Path_6" data-name="Path 6" d="M112.625,9.209a.947.947,0,0,0-1.052-.739h-4.4a.947.947,0,0,0-1.052.739l-7.58,26.653c-.114.493,0,.749.445.749h3.145c.408,0,.673-.256.786-.749l1.668-5.685h9.626l1.658,5.685a1.1,1.1,0,0,0,.247.588.738.738,0,0,0,.539.161h3.108c.446,0,.6-.256.483-.749Zm-7.181,17.462,3.856-14h.17l3.894,14Z" transform="translate(21.293 1.757)" fill="#fff"/>
    <path id="Path_7" data-name="Path 7" d="M150.653,8.471h-5.068a6.776,6.776,0,0,0-5.013,1.772,6.777,6.777,0,0,0-1.771,5.012V29.827a6.767,6.767,0,0,0,1.771,4.984,6.749,6.749,0,0,0,5.013,1.8h5.068a6.759,6.759,0,0,0,4.994-1.8,6.731,6.731,0,0,0,1.791-4.984v-2.1a.692.692,0,0,0-.786-.786h-2.757c-.493,0-.739.265-.739.786v1.9q0,3.24-3.156,3.24h-3.79q-3.135,0-3.146-3.24V15.407c0-2.16,1.052-3.231,3.146-3.231H150c2.1,0,3.156,1.071,3.156,3.231v1.9c0,.521.246.786.739.786h2.757a.693.693,0,0,0,.786-.786V15.255a6.742,6.742,0,0,0-1.791-5.012,6.785,6.785,0,0,0-4.994-1.772Z" transform="translate(30.051 1.756)" fill="#fff"/>
    <path id="Path_8" data-name="Path 8" d="M175.921,8.469h-3.477c-.418,0-.7.246-.881.739L166.247,21.3h-.256l-5.382-12.09q-.312-.739-.881-.739h-3.5a.582.582,0,0,0-.267.051.6.6,0,0,0-.217.167.517.517,0,0,0,0,.568l8.168,16.931V35.86a.676.676,0,0,0,.028.3.662.662,0,0,0,.711.449H167.5a.663.663,0,0,0,.554-.192.652.652,0,0,0,.157-.257.642.642,0,0,0,.028-.3V26.187l8.186-16.931a.529.529,0,0,0,0-.568.57.57,0,0,0-.223-.172A.579.579,0,0,0,175.921,8.469Z" transform="translate(33.72 1.758)" fill="#fff"/>
    <path id="Path_9" data-name="Path 9" d="M137.443,8.471h-2.71a.655.655,0,0,0-.749.739V27.989h-.17L123.221,8.982a.947.947,0,0,0-.947-.483h-2.5a.661.661,0,0,0-.3.028.663.663,0,0,0-.418.412.676.676,0,0,0-.032.3V35.862a.654.654,0,0,0,.028.3.66.66,0,0,0,.419.418.658.658,0,0,0,.3.028h2.71a.665.665,0,0,0,.721-.446.688.688,0,0,0,.028-.3V17.093h.17L133.984,35.91a1.29,1.29,0,0,0,1.137.7h2.359a.665.665,0,0,0,.721-.446.67.67,0,0,0,.028-.3V9.21a.673.673,0,0,0-.033-.31.663.663,0,0,0-.754-.429Z" transform="translate(25.753 1.756)" fill="#fff"/>
    <path id="Path_10" data-name="Path 10" d="M178.582,11.456a1.191,1.191,0,0,0-.293-.227.842.842,0,0,0,.531-.246.712.712,0,0,0,.18-.5.8.8,0,0,0-.114-.426.67.67,0,0,0-.312-.256,2.015,2.015,0,0,0-.635-.076H176.8v2.691h.521V11.295h.114a.947.947,0,0,1,.274,0,.42.42,0,0,1,.162.114,3.882,3.882,0,0,1,.284.388l.388.588h.673l-.332-.521A2.4,2.4,0,0,0,178.582,11.456Zm-.833-.6h-.427v-.682h.824a.352.352,0,0,1,.2.114.3.3,0,0,1,.075.218.35.35,0,0,1-.057.2.264.264,0,0,1-.151.114A2.387,2.387,0,0,1,177.749,10.859Z" transform="translate(38.315 2.03)" fill="#fff"/>
    <path id="Path_11" data-name="Path 11" d="M178.173,8.477a2.843,2.843,0,1,0,2.01.833A2.844,2.844,0,0,0,178.173,8.477Zm0,5.1a2.236,2.236,0,1,1,1.581-.655A2.235,2.235,0,0,1,178.173,13.574Z" transform="translate(37.996 1.76)" fill="#fff"/>
  </g>
</svg>
