<svg xmlns="http://www.w3.org/2000/svg" width="20" height="19" viewBox="0 0 20 19">
  <defs>
    <style>
      .cls-1 {
        fill: #007aff;
        fill-rule: evenodd;
      }
    </style>
  </defs>
  <path class="cls-1" d="M16.52,2.464a9.216,9.216,0,1,0,0,13.041A9.232,9.232,0,0,0,16.52,2.464ZM13.8,11.7a0.768,0.768,0,1,1-1.087,1.087L10,10.071,7.284,12.787A0.768,0.768,0,0,1,6.2,11.7L8.913,8.984,6.2,6.268A0.768,0.768,0,0,1,7.283,5.182L10,7.9l2.716-2.716A0.768,0.768,0,0,1,13.8,6.268L11.087,8.984Z"/>
</svg>
