<svg xmlns="http://www.w3.org/2000/svg" width="14" height="15" viewBox="0 0 14 15">
  <defs>
    <style>
      .cls-1 {
        fill: #007aff;
        fill-rule: evenodd;
      }
    </style>
  </defs>
  <path class="cls-1" d="M12.6,4.941H12.255V3.265a0.245,0.245,0,0,0,0-.032,0.277,0.277,0,0,0-.067-0.184L9.392-.137l0,0A0.275,0.275,0,0,0,9.333-.186L9.314-.2A0.3,0.3,0,0,0,9.258-.221l-0.015,0A0.285,0.285,0,0,0,9.178-.234H2.313a0.568,0.568,0,0,0-.568.567V4.941H1.4a0.811,0.811,0,0,0-.812.811V9.969a0.812,0.812,0,0,0,.812.811H1.745v2.887a0.568,0.568,0,0,0,.568.567h9.374a0.568,0.568,0,0,0,.568-0.567V10.78H12.6a0.812,0.812,0,0,0,.812-0.811V5.752A0.811,0.811,0,0,0,12.6,4.941ZM2.313,0.334H8.894v2.9a0.284,0.284,0,0,0,.284.284h2.509V4.941H2.313V0.334ZM6.59,8.03A1.4,1.4,0,0,1,5.425,6.78,1.39,1.39,0,0,1,7.03,5.5a2.6,2.6,0,0,1,1.082.214L7.9,6.49a2.015,2.015,0,0,0-.888-0.2,0.5,0.5,0,0,0-.617.409c0,0.27.239,0.39,0.787,0.6a1.341,1.341,0,0,1,1.1,1.263c0,0.71-.547,1.314-1.712,1.314a2.784,2.784,0,0,1-1.2-.258l0.195-.792a2.447,2.447,0,0,0,1.064.264c0.44,0,.673-0.182.673-0.459S7.1,8.212,6.59,8.03Zm-5-.277A2.161,2.161,0,0,1,3.908,5.5a2.5,2.5,0,0,1,1.045.189l-0.2.76A2.082,2.082,0,0,0,3.952,6.3,1.275,1.275,0,0,0,2.6,7.7a1.266,1.266,0,0,0,1.36,1.383,2.4,2.4,0,0,0,.8-0.138L4.9,9.689a2.734,2.734,0,0,1-1.089.183A2.016,2.016,0,0,1,1.592,7.753Zm10.1,5.759H2.313V10.78h9.374v2.733Zm-0.635-3.7H9.932L8.573,5.573H9.624L10.14,7.364c0.145,0.5.277,0.986,0.378,1.514h0.019c0.107-.509.239-1.012,0.384-1.5l0.541-1.81h1.02Z"/>
</svg>
