<?xml version="1.0" encoding="utf-8"?>
<!-- Generator: Adobe Illustrator 25.2.0, SVG Export Plug-In . SVG Version: 6.00 Build 0)  -->
<svg version="1.1" id="Layer_1" xmlns="http://www.w3.org/2000/svg" xmlns:xlink="http://www.w3.org/1999/xlink" x="0px" y="0px"
	 viewBox="0 0 19 15" style="enable-background:new 0 0 19 15;" xml:space="preserve">
<style type="text/css">
	.st0{fill:#007AFF;}
</style>
<g>
	<path class="st0" d="M10.15,9.71c0,1.49,0,2.98,0,4.47c0,0.33-0.18,0.58-0.47,0.67c-0.39,0.11-0.77-0.15-0.82-0.57
		c-0.01-0.08-0.01-0.15-0.01-0.23c0-2.93,0-5.86,0-8.78c0-0.13-0.03-0.19-0.17-0.24C7.77,4.68,7.2,4.04,7.04,3.08
		C6.86,2.02,7.24,1.17,8.13,0.55c0.52-0.36,1.12-0.49,1.74-0.38c1.11,0.19,1.82,0.85,2.08,1.94c0.26,1.06-0.25,2.2-1.26,2.75
		c-0.12,0.07-0.25,0.13-0.39,0.16c-0.13,0.03-0.16,0.09-0.16,0.22C10.15,6.73,10.15,8.22,10.15,9.71
		C10.15,9.71,10.15,9.71,10.15,9.71z M10.71,2.66c0-0.68-0.52-1.2-1.21-1.21c-0.68,0-1.22,0.54-1.22,1.21
		c0,0.67,0.54,1.21,1.21,1.22C10.17,3.88,10.71,3.34,10.71,2.66z"/>
	<path class="st0" d="M3.44,2.87c0,0.69,0,1.38,0,2.08c0,0.11,0.03,0.15,0.14,0.19C4.5,5.46,5.07,6.11,5.26,7.07
		C5.5,8.28,4.77,9.48,3.63,9.86c-0.16,0.05-0.2,0.13-0.2,0.29c0.01,1.35,0,2.69,0,4.04c0,0.34-0.19,0.58-0.5,0.65
		c-0.31,0.08-0.64-0.1-0.75-0.4c-0.04-0.11-0.05-0.23-0.05-0.35c0-1.33,0-2.66,0-3.99c0-0.12-0.02-0.18-0.15-0.22
		C1.12,9.56,0.57,8.95,0.35,8.05C0.08,6.91,0.71,5.68,1.79,5.22c0.11-0.05,0.27-0.07,0.33-0.15c0.06-0.1,0.02-0.25,0.02-0.38
		c0-1.26,0-2.52,0-3.78c0-0.25,0.06-0.47,0.26-0.62c0.21-0.15,0.43-0.18,0.66-0.07c0.23,0.11,0.37,0.3,0.37,0.57
		C3.44,1.48,3.44,2.17,3.44,2.87z M2.79,6.3C2.1,6.31,1.58,6.84,1.59,7.54C1.6,8.2,2.15,8.73,2.81,8.73
		C3.48,8.72,4.03,8.16,4.02,7.5C4.01,6.83,3.46,6.29,2.79,6.3z"/>
	<path class="st0" d="M16.85,4c0,1.04,0,2.08,0,3.12c0,0.15,0.04,0.21,0.18,0.26c1.11,0.38,1.78,1.45,1.67,2.54
		c-0.1,1.06-0.68,1.8-1.69,2.17c-0.13,0.05-0.17,0.11-0.17,0.24c0.01,0.61,0,1.22,0,1.83c0,0.33-0.19,0.58-0.48,0.66
		c-0.41,0.11-0.81-0.19-0.81-0.63c-0.01-0.63-0.01-1.25,0-1.88c0-0.12-0.03-0.18-0.15-0.22c-0.98-0.36-1.58-1.06-1.69-2.1
		c-0.11-1.07,0.35-1.9,1.28-2.46c0.13-0.08,0.27-0.13,0.42-0.18c0.11-0.03,0.15-0.09,0.15-0.21c-0.01-0.86,0-1.72,0-2.58
		c0-1.25,0-2.5,0-3.74c0-0.34,0.19-0.6,0.47-0.67c0.45-0.11,0.82,0.18,0.82,0.65c0.01,0.7,0,1.4,0,2.09
		C16.85,3.28,16.85,3.64,16.85,4z M17.41,9.74c0-0.68-0.52-1.21-1.19-1.21c-0.69,0-1.24,0.53-1.23,1.21c0,0.67,0.54,1.22,1.21,1.22
		C16.87,10.97,17.41,10.42,17.41,9.74z"/>
</g>
</svg>
