<?xml version="1.0" encoding="utf-8"?>
<!-- Generator: Adobe Illustrator 16.0.0, SVG Export Plug-In . SVG Version: 6.00 Build 0)  -->
<!DOCTYPE svg PUBLIC "-//W3C//DTD SVG 1.1//EN" "http://www.w3.org/Graphics/SVG/1.1/DTD/svg11.dtd">
<svg version="1.1" id="Layer_1" xmlns="http://www.w3.org/2000/svg" xmlns:xlink="http://www.w3.org/1999/xlink" x="0px" y="0px"
	 width="35px" height="35px" viewBox="0 0 35 35" enable-background="new 0 0 35 35" xml:space="preserve">
<circle fill="#EBF5FF" cx="17.5" cy="17.5" r="17.5"/>
<g>
	<path fill="#007AFF" d="M26.023,11.694l-0.465-1.391c-0.177-0.529-0.671-0.885-1.228-0.885h-3.897V8.15
		c0-0.634-0.515-1.15-1.149-1.15h-3.569c-0.634,0-1.149,0.516-1.149,1.15v1.269h-3.897c-0.559,0-1.052,0.356-1.229,0.885
		l-0.463,1.391c-0.105,0.316-0.052,0.667,0.143,0.937c0.195,0.271,0.511,0.432,0.844,0.432h0.484l1.066,13.191
		c0.08,0.979,0.91,1.745,1.892,1.745h8.403c0.981,0,1.811-0.766,1.891-1.745l1.066-13.191h0.269c0.335,0,0.649-0.161,0.846-0.432
		C26.074,12.361,26.129,12.011,26.023,11.694z M15.796,8.23h3.407v1.188h-3.407V8.23z M22.475,26.155
		c-0.028,0.345-0.32,0.614-0.665,0.614h-8.403c-0.345,0-0.637-0.27-0.665-0.614l-1.059-13.092h11.849L22.475,26.155z M10.228,11.833
		l0.38-1.14c0.009-0.026,0.033-0.044,0.061-0.044h13.662c0.026,0,0.053,0.018,0.061,0.044l0.381,1.14H10.228z"/>
	<path fill="#007AFF" d="M20.512,26.111c0.01,0.001,0.021,0.001,0.031,0.001c0.326,0,0.599-0.254,0.614-0.582l0.579-11.092
		c0.017-0.339-0.243-0.628-0.583-0.646c-0.339-0.017-0.63,0.244-0.646,0.583l-0.579,11.089
		C19.912,25.805,20.172,26.094,20.512,26.111z"/>
	<path fill="#007AFF" d="M13.869,25.531c0.018,0.328,0.289,0.581,0.614,0.581c0.011,0,0.022,0,0.034-0.001
		c0.339-0.019,0.6-0.309,0.581-0.648l-0.605-11.09c-0.019-0.339-0.309-0.599-0.647-0.581c-0.34,0.019-0.6,0.308-0.581,0.648
		L13.869,25.531z"/>
	<path fill="#007AFF" d="M17.507,26.112c0.339,0,0.614-0.274,0.614-0.615V14.406c0-0.34-0.275-0.615-0.614-0.615
		c-0.34,0-0.615,0.275-0.615,0.615v11.091C16.892,25.838,17.167,26.112,17.507,26.112z"/>
</g>
</svg>
