<?xml version="1.0" encoding="utf-8"?>
<!-- Generator: Adobe Illustrator 16.0.0, SVG Export Plug-In . SVG Version: 6.00 Build 0)  -->
<!DOCTYPE svg PUBLIC "-//W3C//DTD SVG 1.1//EN" "http://www.w3.org/Graphics/SVG/1.1/DTD/svg11.dtd">
<svg version="1.1" id="Layer_1" xmlns="http://www.w3.org/2000/svg" xmlns:xlink="http://www.w3.org/1999/xlink" x="0px" y="0px"
	 width="35px" height="35px" viewBox="0 0 35 35" enable-background="new 0 0 35 35" xml:space="preserve">
<circle fill="#EBF5FF" cx="17.5" cy="17.5" r="17.5"/>
<g>
	<g>
		<g>
			<path fill="#007AFF" d="M20.928,16.885c-0.074-0.153-0.227-0.254-0.394-0.254h-1.736V11c0-0.24-0.193-0.433-0.433-0.433h-1.734
				c-0.237,0-0.432,0.192-0.432,0.433v5.631h-1.733c-0.171,0-0.325,0.101-0.395,0.254c-0.071,0.158-0.043,0.336,0.069,0.468
				l3.031,3.463c0.085,0.099,0.203,0.15,0.328,0.15s0.243-0.053,0.327-0.15l3.035-3.463C20.97,17.223,20.994,17.043,20.928,16.885z"
				/>
		</g>
	</g>
	<g>
		<g>
			<path fill="#007AFF" d="M22.263,20.102v2.602h-9.53v-2.602H11v3.467c0,0.479,0.388,0.864,0.869,0.864h11.266
				c0.475,0,0.865-0.385,0.865-0.864v-3.467H22.263z"/>
		</g>
	</g>
</g>
</svg>
