<svg xmlns="http://www.w3.org/2000/svg" viewBox="0 0 109 109" width="109" height="109">
	<style>
		tspan { white-space:pre }
		.shp0 { fill: #ffffff } 
	</style>
	<g id="2">
		<g id="Group 2">
			<path id="Shape 1" class="shp0" d="M4.93 84.38C6.9 85.89 8.71 87.37 10.61 88.73C13.47 90.79 16.48 92.62 19.71 94.04C22.32 95.19 24.96 96.3 27.66 97.21C31.84 98.62 36.17 99.37 40.57 99.75C43.93 100.04 47.29 100.01 50.64 99.69C56.03 99.16 61.25 97.88 66.29 95.86C70.31 94.26 74.07 92.18 77.59 89.69C80.3 87.77 82.82 85.63 85.15 83.24C89.05 79.24 92.29 74.76 94.85 69.8C96.55 66.51 97.9 63.08 98.91 59.51C100.01 55.66 100.7 51.74 100.96 47.74C101.2 44.17 101.13 40.62 100.71 37.06C100.06 31.56 98.68 26.27 96.6 21.14C95.15 17.6 93.39 14.24 91.39 11C91.31 10.88 91.27 10.74 91.14 10.46C91.37 10.6 91.48 10.65 91.57 10.73C94.02 12.9 96.19 15.33 98.15 17.96C101.48 22.43 103.95 27.35 105.73 32.61C106.92 36.16 107.7 39.81 108.14 43.54C108.82 49.26 108.67 54.96 107.63 60.62C106.35 67.57 103.88 74.09 100.19 80.14C97.37 84.78 93.98 88.96 90 92.65C85.73 96.61 80.99 99.91 75.75 102.44C69.44 105.5 62.78 107.41 55.77 108.04C52.29 108.36 48.81 108.37 45.34 108.07C40.47 107.65 35.73 106.61 31.12 104.96C26.81 103.42 22.77 101.35 18.98 98.8C15.02 96.14 11.53 92.94 8.46 89.3C7.24 87.86 6.2 86.26 5.09 84.73C5.04 84.67 5.02 84.58 4.93 84.38ZM51.81 0.82C51.57 0.88 51.33 0.97 51.08 1.02C49.99 1.23 48.88 1.38 47.8 1.65C46.26 2.03 44.71 2.4 43.24 2.95C40.92 3.82 38.64 4.79 36.39 5.81C35.02 6.43 33.67 7.16 32.42 8C30.41 9.34 28.48 10.79 26.56 12.26C24.41 13.9 22.54 15.85 20.85 17.95C19.66 19.43 18.5 20.95 17.49 22.56C16.03 24.9 14.51 27.23 13.56 29.84C12.58 32.51 11.58 35.17 11.04 37.99C10.38 41.42 9.94 44.85 10.05 48.35C10.15 51.68 10.46 54.96 11.45 58.16C11.97 59.87 12.37 61.61 12.99 63.28C13.67 65.09 14.41 66.91 15.36 68.59C16.51 70.65 17.88 72.58 19.21 74.53C19.95 75.61 20.76 76.65 21.62 77.63C23.16 79.38 24.8 81.02 26.66 82.44C27.99 83.45 29.25 84.57 30.63 85.5C32.41 86.69 34.21 87.9 36.13 88.81C38.83 90.08 41.61 91.2 44.43 92.16C46.56 92.88 48.8 93.24 50.99 93.77C51.02 93.78 51.05 93.83 51.15 93.94C50.34 94.06 49.59 94.19 48.84 94.27C48.14 94.35 47.43 94.38 46.72 94.42C45.89 94.46 45.05 94.54 44.22 94.51C42.99 94.46 41.74 94.4 40.52 94.21C38.3 93.87 36.08 93.49 33.87 93.02C32.77 92.78 31.7 92.34 30.64 91.93C29.22 91.36 27.79 90.78 26.41 90.11C24.91 89.38 23.42 88.6 21.99 87.73C20.83 87.03 19.76 86.18 18.68 85.36C17.68 84.62 16.67 83.89 15.75 83.06C14.66 82.08 13.61 81.05 12.63 79.97C11.4 78.61 10.15 77.26 9.13 75.76C7.77 73.76 6.63 71.62 5.37 69.56C3.78 66.94 2.9 64.04 1.95 61.16C0.94 58.11 0.29 55 0.12 51.81C-0.03 49.09 -0.13 46.34 0.01 43.62C0.2 40.08 0.91 36.6 1.91 33.18C2.87 29.92 4.21 26.82 5.84 23.86C7.53 20.78 9.56 17.92 11.93 15.3C14.69 12.26 17.73 9.55 21.16 7.29C23.59 5.7 26.14 4.34 28.81 3.25C30.54 2.54 32.35 1.98 34.16 1.5C36.03 1 37.94 0.52 39.86 0.31C42.36 0.04 44.88 -0.22 47.41 0.09C48.77 0.26 50.13 0.38 51.49 0.52C51.59 0.53 51.69 0.57 51.79 0.6C51.79 0.67 51.8 0.74 51.81 0.82ZM26.85 26.5C28.27 22.6 30.43 19.2 33.18 16.26C38.85 10.19 45.82 6.27 54.05 4.96C71.2 2.21 84.11 11.1 90.09 21.34C95.09 29.87 96.37 39.09 94.03 48.73C92.21 56.17 88.37 61.77 84.47 65.29C84.71 64.52 84.88 63.92 85.1 63.35C86.29 60.25 87.08 57.03 87.6 53.77C88.07 50.87 88.22 47.93 88.01 45C87.85 42.82 87.51 40.64 87.07 38.5C86.43 35.42 85.31 32.48 83.8 29.71C82.52 27.38 81.04 25.17 79.19 23.23C77.6 21.57 75.9 20.04 73.99 18.77C72.05 17.49 69.98 16.45 67.79 15.6C65.8 14.81 63.72 14.4 61.66 13.94C60.78 13.75 59.87 13.64 58.98 13.63C56.93 13.62 54.87 13.58 52.84 13.78C51.07 13.94 49.32 14.36 47.58 14.76C46.16 15.09 44.73 15.47 43.37 16C40.88 16.99 38.37 17.97 36.14 19.51C34.46 20.67 32.78 21.81 31.15 23.03C29.71 24.11 28.34 25.29 26.85 26.5ZM63.1 79.01C61.51 77 60.87 74.67 60.83 72.16C60.8 70.02 60.84 67.88 60.81 65.74C60.79 63.99 60.8 62.24 60.64 60.51C60.35 57.44 59.21 54.67 57.38 52.18C57.34 52.13 57.23 52.13 57.15 52.1C57.12 51.99 57.12 51.85 57.06 51.76C55.91 50.28 54.54 49.02 53.04 47.91C51.29 46.62 49.39 45.57 47.4 44.7C46.72 44.4 46.03 44.13 45.31 43.83C45.3 44.02 45.28 44.12 45.28 44.22C45.28 50.65 45.28 57.09 45.28 63.53C45.28 63.65 45.33 63.77 45.36 63.9C45.33 64.05 45.28 64.21 45.29 64.37C45.33 65.49 45.33 66.63 45.46 67.75C45.8 70.6 46.8 73.23 48.49 75.57C50.18 77.89 52.35 79.65 54.93 80.89C57.77 82.26 60.71 82.8 63.81 82.03C64.5 81.86 65.17 81.61 65.76 81.1C64.68 80.6 63.81 79.9 63.1 79.01ZM60.55 32.79C60.5 32.63 60.37 32.49 60.27 32.34C60.23 32.13 60.22 31.91 60.13 31.72C59.44 30.24 58.39 29.06 57.01 28.2C56.53 27.9 56 27.72 55.49 27.48C55.27 27.39 55.06 27.28 54.84 27.22C53.16 26.71 51.47 26.73 49.83 27.31C46.94 28.34 45.07 30.32 44.3 33.34C43.88 35.02 43.97 36.64 44.56 38.25C46.37 43.22 52.3 45.32 56.82 42.59C60.18 40.56 61.71 36.56 60.55 32.79Z" />
		</g>
	</g>
</svg>