<?xml version="1.0" encoding="utf-8"?>
<!-- Generator: Adobe Illustrator 16.0.0, SVG Export Plug-In . SVG Version: 6.00 Build 0)  -->
<!DOCTYPE svg PUBLIC "-//W3C//DTD SVG 1.1//EN" "http://www.w3.org/Graphics/SVG/1.1/DTD/svg11.dtd">
<svg version="1.1" id="Layer_1" xmlns="http://www.w3.org/2000/svg" xmlns:xlink="http://www.w3.org/1999/xlink" x="0px" y="0px"
	 width="28px" height="28px" viewBox="0 0 28 28" enable-background="new 0 0 28 28" xml:space="preserve">
<g>
	<g>
		<path fill-rule="evenodd" clip-rule="evenodd" d="M16.6,19.477c-0.396-0.498-0.555-1.077-0.563-1.701
			c-0.008-0.533,0.002-1.065-0.004-1.599c-0.006-0.433-0.003-0.868-0.044-1.298c-0.072-0.764-0.355-1.453-0.812-2.07
			c-0.01-0.014-0.037-0.014-0.057-0.021c-0.007-0.028-0.006-0.063-0.022-0.084c-0.286-0.368-0.625-0.681-0.999-0.957
			c-0.436-0.321-0.907-0.582-1.402-0.799c-0.168-0.074-0.34-0.141-0.52-0.215c-0.003,0.046-0.007,0.071-0.007,0.096
			c0,1.601,0,3.201,0,4.802c0,0.03,0.012,0.061,0.018,0.091c-0.006,0.039-0.019,0.078-0.018,0.117c0.012,0.28,0.01,0.563,0.043,0.84
			c0.084,0.711,0.333,1.363,0.754,1.944c0.42,0.579,0.959,1.015,1.601,1.324c0.704,0.34,1.436,0.475,2.207,0.283
			c0.171-0.042,0.338-0.105,0.484-0.232C16.994,19.871,16.776,19.698,16.6,19.477z"/>
		<path fill-rule="evenodd" clip-rule="evenodd" d="M15.967,7.988c-0.013-0.042-0.047-0.076-0.07-0.114
			c-0.011-0.051-0.014-0.106-0.034-0.152c-0.173-0.368-0.433-0.663-0.777-0.877c-0.117-0.073-0.251-0.119-0.378-0.177
			c-0.053-0.023-0.105-0.05-0.16-0.067c-0.418-0.125-0.837-0.121-1.246,0.024c-0.718,0.256-1.184,0.748-1.375,1.498
			c-0.105,0.417-0.082,0.822,0.064,1.223c0.451,1.235,1.924,1.755,3.049,1.077C15.875,9.919,16.254,8.924,15.967,7.988z"/>
	</g>
	<g>
		<path d="M15.599,24.303c-6.573,0-11.901-5.328-11.901-11.901c0-6.313,4.915-11.477,11.127-11.875C14.551,0.509,14.277,0.5,14,0.5
			C6.544,0.5,0.5,6.544,0.5,14S6.544,27.5,14,27.5S27.5,21.456,27.5,14c0-0.277-0.01-0.551-0.025-0.824
			C27.075,19.388,21.911,24.303,15.599,24.303z"/>
		<path d="M15.645,4.01c5.128,0.722,8.7,5.464,7.978,10.593c-0.693,4.924-5.095,8.414-9.985,8.042c0.211,0.043,0.424,0.08,0.64,0.11
			c5.817,0.819,11.197-3.232,12.015-9.049c0.82-5.816-3.231-11.196-9.049-12.016C11.427,0.872,6.048,4.923,5.228,10.74
			c-0.03,0.216-0.052,0.432-0.069,0.646C6.152,6.583,10.721,3.316,15.645,4.01z"/>
	</g>
</g>
</svg>
