<?xml version="1.0" encoding="utf-8"?>
<!-- Generator: Adobe Illustrator 16.0.0, SVG Export Plug-In . SVG Version: 6.00 Build 0)  -->
<!DOCTYPE svg PUBLIC "-//W3C//DTD SVG 1.1//EN" "http://www.w3.org/Graphics/SVG/1.1/DTD/svg11.dtd">
<svg version="1.1" id="Layer_1" xmlns="http://www.w3.org/2000/svg" xmlns:xlink="http://www.w3.org/1999/xlink" x="0px" y="0px"
	 width="110px" height="45px" viewBox="0 0 110 45" enable-background="new 0 0 110 45" xml:space="preserve" fill="#ffffff">
<g>
	<g>
		<g>
			<g>
				<path d="M57.31,10.591c0,1.334-0.983,2.379-2.552,2.379c-1.497,0-2.482-1.045-2.482-2.379c0-1.369,1.021-2.414,2.518-2.414
					C56.326,8.177,57.274,9.222,57.31,10.591z M52.531,33.039V15.492h4.526v17.547H52.531z"/>
				<path d="M60.23,9.079c1.605-0.289,3.832-0.504,6.861-0.504c3.284,0,5.693,0.685,7.262,1.981c1.46,1.189,2.409,3.099,2.409,5.37
					c0,2.306-0.731,4.213-2.118,5.51c-1.786,1.767-4.597,2.596-7.772,2.596c-0.84,0-1.605-0.036-2.189-0.145v9.152H60.23V9.079z
					 M64.683,20.393c0.549,0.144,1.277,0.181,2.189,0.181c3.357,0,5.402-1.623,5.402-4.468c0-2.703-1.898-4.144-5-4.144
					c-1.242,0-2.118,0.107-2.592,0.215V20.393z"/>
				<path d="M94.608,24.102c0,6.452-4.599,9.334-9.124,9.334c-5.037,0-8.907-3.423-8.907-9.044c0-5.763,3.833-9.295,9.198-9.295
					C91.068,15.096,94.608,18.772,94.608,24.102z M81.213,24.282c0,3.387,1.681,5.945,4.417,5.945c2.555,0,4.343-2.486,4.343-6.017
					c0-2.736-1.241-5.873-4.307-5.873C82.491,18.338,81.213,21.365,81.213,24.282z"/>
				<path d="M96.25,28.966c1.021,0.614,2.956,1.262,4.562,1.262c1.97,0,2.847-0.791,2.847-1.943c0-1.191-0.73-1.804-2.92-2.558
					c-3.467-1.19-4.927-3.064-4.89-5.118c0-3.099,2.592-5.512,6.715-5.512c1.971,0,3.686,0.505,4.708,1.045l-0.877,3.134
					c-0.767-0.433-2.189-1.009-3.759-1.009c-1.604,0-2.481,0.756-2.481,1.837c0,1.118,0.84,1.66,3.101,2.45
					c3.213,1.153,4.71,2.774,4.745,5.368c0,3.171-2.517,5.478-7.226,5.478c-2.152,0-4.088-0.504-5.4-1.224L96.25,28.966z"/>
			</g>
			<g>
				<path d="M52.509,38.239c0.268-0.047,0.642-0.084,1.151-0.084c0.553,0,0.956,0.117,1.222,0.338
					c0.244,0.202,0.402,0.526,0.402,0.91c0,0.394-0.122,0.718-0.353,0.939c-0.301,0.301-0.773,0.442-1.307,0.442
					c-0.14,0-0.27-0.007-0.368-0.024v1.558h-0.747V38.239z M53.256,40.165c0.093,0.025,0.215,0.031,0.368,0.031
					c0.564,0,0.907-0.277,0.907-0.759c0-0.462-0.318-0.706-0.839-0.706c-0.208,0-0.356,0.019-0.436,0.036V40.165z"/>
				<path d="M60.826,40.208c0,1.385-0.841,2.176-1.981,2.176c-1.164,0-1.897-0.887-1.897-2.102c0-1.269,0.795-2.163,1.96-2.163
					C60.114,38.119,60.826,39.03,60.826,40.208z M57.742,40.27c0,0.842,0.424,1.508,1.146,1.508c0.73,0,1.14-0.675,1.14-1.538
					c0-0.778-0.385-1.515-1.14-1.515C58.141,38.725,57.742,39.416,57.742,40.27z"/>
				<path d="M63.457,38.187v4.132h-0.755v-4.132H63.457z"/>
				<path d="M65.548,42.318v-4.132h0.856l1.068,1.772c0.274,0.459,0.514,0.937,0.703,1.384h0.013
					c-0.05-0.551-0.065-1.085-0.065-1.716v-1.44h0.698v4.132h-0.779l-1.078-1.816c-0.265-0.453-0.542-0.961-0.743-1.43l-0.018,0.009
					c0.03,0.533,0.036,1.08,0.036,1.757v1.48H65.548z"/>
				<path d="M71.707,38.817H70.53v-0.631h3.12v0.631h-1.189v3.501h-0.754V38.817z"/>
				<path d="M81.522,40.208c0,1.385-0.841,2.176-1.981,2.176c-1.163,0-1.9-0.887-1.9-2.102c0-1.269,0.796-2.163,1.963-2.163
					C80.81,38.119,81.522,39.03,81.522,40.208z M78.437,40.27c0,0.842,0.427,1.508,1.149,1.508c0.729,0,1.139-0.675,1.139-1.538
					c0-0.778-0.386-1.515-1.139-1.515C78.838,38.725,78.437,39.416,78.437,40.27z"/>
				<path d="M83.397,38.187h2.384v0.619h-1.629v1.14h1.52v0.619h-1.52v1.754h-0.755V38.187z"/>
				<path d="M90.22,41.497c0.247,0.14,0.614,0.262,0.999,0.262c0.484,0,0.756-0.226,0.756-0.563c0-0.313-0.21-0.496-0.737-0.688
					c-0.679-0.245-1.115-0.606-1.115-1.201c0-0.675,0.564-1.188,1.459-1.188c0.447,0,0.778,0.097,0.993,0.207l-0.184,0.606
					c-0.148-0.078-0.437-0.194-0.823-0.194c-0.476,0-0.684,0.258-0.684,0.495c0,0.319,0.237,0.468,0.79,0.681
					c0.717,0.271,1.067,0.631,1.067,1.227c0,0.661-0.504,1.236-1.571,1.236c-0.436,0-0.888-0.121-1.114-0.257L90.22,41.497z"/>
				<path d="M95.474,41.146l-0.355,1.172H94.34l1.325-4.132h0.961l1.345,4.132h-0.812l-0.373-1.172H95.474z M96.655,40.577
					l-0.324-1.018c-0.078-0.252-0.146-0.533-0.208-0.775h-0.012c-0.062,0.242-0.123,0.529-0.196,0.775l-0.317,1.018H96.655z"/>
				<path d="M99.771,38.187h0.753v3.5h1.7v0.632h-2.453V38.187z"/>
				<path d="M106.329,40.485h-1.556v1.213h1.74v0.62h-2.494v-4.132h2.403v0.619h-1.649v1.066h1.556V40.485z"/>
			</g>
		</g>
		<g>
			<g>
				<path fill-rule="evenodd" clip-rule="evenodd" d="M3.995,34.597c0.784,0.604,1.51,1.194,2.269,1.741
					c1.141,0.82,2.346,1.553,3.636,2.119c1.045,0.458,2.101,0.906,3.181,1.271c1.669,0.562,3.399,0.86,5.157,1.012
					c1.348,0.117,2.69,0.105,4.029-0.024c2.154-0.209,4.237-0.724,6.253-1.529c1.608-0.642,3.11-1.47,4.519-2.468
					c1.082-0.768,2.092-1.622,3.02-2.579c1.562-1.599,2.856-3.388,3.879-5.369c0.681-1.317,1.218-2.689,1.624-4.116
					c0.438-1.539,0.712-3.106,0.819-4.703c0.093-1.427,0.064-2.849-0.102-4.272c-0.258-2.197-0.81-4.312-1.644-6.361
					c-0.576-1.414-1.281-2.758-2.083-4.054c-0.031-0.05-0.048-0.106-0.097-0.214c0.091,0.055,0.136,0.073,0.169,0.104
					c0.981,0.871,1.851,1.841,2.632,2.894c1.332,1.785,2.319,3.75,3.029,5.855c0.478,1.419,0.791,2.875,0.965,4.368
					c0.269,2.291,0.213,4.564-0.203,6.827c-0.512,2.782-1.502,5.387-2.975,7.804c-1.13,1.855-2.484,3.526-4.076,5.003
					c-1.707,1.581-3.599,2.899-5.694,3.914c-2.524,1.221-5.184,1.983-7.988,2.238c-1.39,0.125-2.782,0.133-4.168,0.012
					c-1.945-0.167-3.84-0.585-5.682-1.244c-1.724-0.618-3.341-1.445-4.857-2.463c-1.581-1.063-2.977-2.344-4.204-3.798
					c-0.489-0.577-0.903-1.216-1.348-1.826C4.036,34.711,4.029,34.677,3.995,34.597z"/>
				<path fill-rule="evenodd" clip-rule="evenodd" d="M22.734,1.192c-0.099,0.027-0.194,0.061-0.293,0.079
					c-0.437,0.086-0.879,0.147-1.311,0.256c-0.614,0.151-1.234,0.298-1.825,0.519c-0.924,0.346-1.837,0.731-2.736,1.141
					c-0.549,0.25-1.088,0.539-1.588,0.875c-0.801,0.538-1.574,1.116-2.343,1.702c-0.859,0.657-1.605,1.438-2.282,2.276
					C9.881,8.633,9.417,9.24,9.014,9.883c-0.585,0.936-1.19,1.867-1.573,2.911c-0.392,1.069-0.789,2.132-1.006,3.26
					c-0.263,1.372-0.437,2.743-0.396,4.139c0.039,1.33,0.164,2.646,0.56,3.925c0.209,0.679,0.37,1.379,0.617,2.042
					c0.271,0.727,0.566,1.451,0.944,2.128c0.462,0.818,1.009,1.594,1.542,2.372c0.295,0.431,0.62,0.847,0.964,1.237
					c0.613,0.701,1.272,1.356,2.015,1.924c0.53,0.405,1.033,0.853,1.587,1.225c0.71,0.475,1.429,0.957,2.198,1.321
					c1.078,0.507,2.19,0.956,3.319,1.34c0.848,0.289,1.745,0.433,2.62,0.643c0.013,0.003,0.023,0.023,0.066,0.068
					c-0.325,0.048-0.625,0.1-0.924,0.133c-0.282,0.029-0.566,0.044-0.848,0.06c-0.333,0.016-0.668,0.05-0.999,0.035
					c-0.495-0.02-0.992-0.043-1.48-0.118c-0.889-0.135-1.777-0.29-2.658-0.478c-0.441-0.098-0.869-0.271-1.291-0.437
					c-0.571-0.226-1.141-0.456-1.691-0.727c-0.602-0.289-1.198-0.604-1.769-0.949c-0.463-0.282-0.889-0.621-1.323-0.947
					c-0.397-0.297-0.801-0.59-1.169-0.92c-0.438-0.392-0.858-0.805-1.25-1.238c-0.489-0.541-0.991-1.081-1.4-1.684
					c-0.542-0.795-0.996-1.651-1.5-2.474c-0.638-1.048-0.988-2.208-1.369-3.361c-0.402-1.218-0.663-2.461-0.732-3.736
					c-0.059-1.09-0.099-2.185-0.043-3.272c0.074-1.418,0.358-2.81,0.76-4.175c0.382-1.302,0.919-2.544,1.57-3.728
					C5.034,9.17,5.841,8.028,6.791,6.982c1.106-1.218,2.318-2.298,3.693-3.202c0.967-0.637,1.985-1.179,3.055-1.615
					c0.69-0.285,1.413-0.506,2.137-0.698c0.75-0.2,1.51-0.393,2.279-0.476c0.999-0.108,2.008-0.212,3.018-0.089
					c0.543,0.066,1.089,0.114,1.633,0.174c0.041,0.005,0.078,0.021,0.117,0.031C22.727,1.135,22.73,1.164,22.734,1.192z"/>
				<path fill-rule="evenodd" clip-rule="evenodd" d="M12.756,11.458c0.566-1.558,1.431-2.918,2.528-4.093
					c2.266-2.426,5.054-3.991,8.342-4.518c6.858-1.097,12.016,2.458,14.41,6.548c1.995,3.412,2.511,7.095,1.572,10.951
					c-0.725,2.977-2.26,5.212-3.822,6.618c0.1-0.304,0.164-0.545,0.254-0.775c0.476-1.238,0.791-2.525,1-3.831
					c0.187-1.158,0.246-2.335,0.163-3.504c-0.063-0.872-0.2-1.742-0.376-2.597c-0.254-1.233-0.702-2.408-1.307-3.514
					c-0.512-0.935-1.1-1.814-1.843-2.592c-0.634-0.666-1.315-1.275-2.079-1.781c-0.775-0.513-1.603-0.93-2.475-1.271
					c-0.799-0.312-1.626-0.479-2.455-0.66c-0.349-0.078-0.713-0.124-1.071-0.125c-0.818-0.004-1.64-0.019-2.454,0.057
					c-0.706,0.068-1.408,0.234-2.101,0.396c-0.569,0.132-1.141,0.281-1.683,0.496c-0.997,0.393-2,0.79-2.893,1.402
					c-0.67,0.464-1.343,0.919-1.993,1.408C13.897,10.505,13.35,10.976,12.756,11.458z"/>
			</g>
			<g>
				<g>
					<path fill-rule="evenodd" clip-rule="evenodd" d="M27.245,32.447c-0.636-0.8-0.892-1.731-0.906-2.735
						c-0.011-0.856,0.004-1.714-0.007-2.569c-0.009-0.696-0.003-1.397-0.068-2.088c-0.117-1.227-0.573-2.335-1.307-3.329
						c-0.016-0.02-0.059-0.02-0.09-0.034c-0.011-0.044-0.01-0.102-0.036-0.136c-0.46-0.591-1.004-1.096-1.606-1.54
						c-0.699-0.518-1.459-0.936-2.254-1.284c-0.271-0.119-0.546-0.227-0.837-0.348c-0.004,0.076-0.009,0.115-0.009,0.157
						c0,2.572,0,5.147,0,7.718c0,0.05,0.018,0.1,0.029,0.147c-0.011,0.064-0.031,0.125-0.028,0.188
						c0.021,0.453,0.017,0.905,0.069,1.351c0.137,1.145,0.536,2.193,1.214,3.13c0.675,0.929,1.542,1.628,2.575,2.127
						c1.131,0.548,2.309,0.764,3.548,0.456c0.276-0.068,0.545-0.17,0.78-0.375C27.878,33.083,27.529,32.805,27.245,32.447z"/>
					<path fill-rule="evenodd" clip-rule="evenodd" d="M26.228,13.976c-0.02-0.067-0.074-0.124-0.113-0.183
						c-0.016-0.081-0.021-0.172-0.056-0.246c-0.277-0.591-0.694-1.063-1.248-1.409c-0.189-0.117-0.405-0.191-0.609-0.285
						c-0.086-0.037-0.169-0.081-0.257-0.107c-0.672-0.201-1.348-0.195-2.004,0.04c-1.155,0.41-1.903,1.202-2.21,2.407
						c-0.169,0.67-0.13,1.32,0.104,1.964c0.726,1.989,3.092,2.825,4.902,1.732C26.081,17.081,26.689,15.479,26.228,13.976z"/>
				</g>
			</g>
		</g>
	</g>
	<g>
		<g>
			<g>
				<path d="M57.31,10.591c0,1.334-0.983,2.379-2.552,2.379c-1.497,0-2.482-1.045-2.482-2.379c0-1.369,1.021-2.414,2.518-2.414
					C56.326,8.177,57.274,9.222,57.31,10.591z M52.531,33.039V15.492h4.526v17.547H52.531z"/>
				<path d="M60.23,9.079c1.605-0.289,3.832-0.504,6.861-0.504c3.284,0,5.693,0.685,7.262,1.981c1.46,1.189,2.409,3.099,2.409,5.37
					c0,2.306-0.731,4.213-2.118,5.51c-1.786,1.767-4.597,2.596-7.772,2.596c-0.84,0-1.605-0.036-2.189-0.145v9.152H60.23V9.079z
					 M64.683,20.393c0.549,0.144,1.277,0.181,2.189,0.181c3.357,0,5.402-1.623,5.402-4.468c0-2.703-1.898-4.144-5-4.144
					c-1.242,0-2.118,0.107-2.592,0.215V20.393z"/>
				<path d="M94.608,24.102c0,6.452-4.599,9.334-9.124,9.334c-5.037,0-8.907-3.423-8.907-9.044c0-5.763,3.833-9.295,9.198-9.295
					C91.068,15.096,94.608,18.772,94.608,24.102z M81.213,24.282c0,3.387,1.681,5.945,4.417,5.945c2.555,0,4.343-2.486,4.343-6.017
					c0-2.736-1.241-5.873-4.307-5.873C82.491,18.338,81.213,21.365,81.213,24.282z"/>
				<path d="M96.25,28.966c1.021,0.614,2.956,1.262,4.562,1.262c1.97,0,2.847-0.791,2.847-1.943c0-1.191-0.73-1.804-2.92-2.558
					c-3.467-1.19-4.927-3.064-4.89-5.118c0-3.099,2.592-5.512,6.715-5.512c1.971,0,3.686,0.505,4.708,1.045l-0.877,3.134
					c-0.767-0.433-2.189-1.009-3.759-1.009c-1.604,0-2.481,0.756-2.481,1.837c0,1.118,0.84,1.66,3.101,2.45
					c3.213,1.153,4.71,2.774,4.745,5.368c0,3.171-2.517,5.478-7.226,5.478c-2.152,0-4.088-0.504-5.4-1.224L96.25,28.966z"/>
			</g>
			<g>
				<path d="M52.509,38.239c0.268-0.047,0.642-0.084,1.151-0.084c0.553,0,0.956,0.117,1.222,0.338
					c0.244,0.202,0.402,0.526,0.402,0.91c0,0.394-0.122,0.718-0.353,0.939c-0.301,0.301-0.773,0.442-1.307,0.442
					c-0.14,0-0.27-0.007-0.368-0.024v1.558h-0.747V38.239z M53.256,40.165c0.093,0.025,0.215,0.031,0.368,0.031
					c0.564,0,0.907-0.277,0.907-0.759c0-0.462-0.318-0.706-0.839-0.706c-0.208,0-0.356,0.019-0.436,0.036V40.165z"/>
				<path d="M60.826,40.208c0,1.385-0.841,2.176-1.981,2.176c-1.164,0-1.897-0.887-1.897-2.102c0-1.269,0.795-2.163,1.96-2.163
					C60.114,38.119,60.826,39.03,60.826,40.208z M57.742,40.27c0,0.842,0.424,1.508,1.146,1.508c0.73,0,1.14-0.675,1.14-1.538
					c0-0.778-0.385-1.515-1.14-1.515C58.141,38.725,57.742,39.416,57.742,40.27z"/>
				<path d="M63.457,38.187v4.132h-0.755v-4.132H63.457z"/>
				<path d="M65.548,42.318v-4.132h0.856l1.068,1.772c0.274,0.459,0.514,0.937,0.703,1.384h0.013
					c-0.05-0.551-0.065-1.085-0.065-1.716v-1.44h0.698v4.132h-0.779l-1.078-1.816c-0.265-0.453-0.542-0.961-0.743-1.43l-0.018,0.009
					c0.03,0.533,0.036,1.08,0.036,1.757v1.48H65.548z"/>
				<path d="M71.707,38.817H70.53v-0.631h3.12v0.631h-1.189v3.501h-0.754V38.817z"/>
				<path d="M81.522,40.208c0,1.385-0.841,2.176-1.981,2.176c-1.163,0-1.9-0.887-1.9-2.102c0-1.269,0.796-2.163,1.963-2.163
					C80.81,38.119,81.522,39.03,81.522,40.208z M78.437,40.27c0,0.842,0.427,1.508,1.149,1.508c0.729,0,1.139-0.675,1.139-1.538
					c0-0.778-0.386-1.515-1.139-1.515C78.838,38.725,78.437,39.416,78.437,40.27z"/>
				<path d="M83.397,38.187h2.384v0.619h-1.629v1.14h1.52v0.619h-1.52v1.754h-0.755V38.187z"/>
				<path d="M90.22,41.497c0.247,0.14,0.614,0.262,0.999,0.262c0.484,0,0.756-0.226,0.756-0.563c0-0.313-0.21-0.496-0.737-0.688
					c-0.679-0.245-1.115-0.606-1.115-1.201c0-0.675,0.564-1.188,1.459-1.188c0.447,0,0.778,0.097,0.993,0.207l-0.184,0.606
					c-0.148-0.078-0.437-0.194-0.823-0.194c-0.476,0-0.684,0.258-0.684,0.495c0,0.319,0.237,0.468,0.79,0.681
					c0.717,0.271,1.067,0.631,1.067,1.227c0,0.661-0.504,1.236-1.571,1.236c-0.436,0-0.888-0.121-1.114-0.257L90.22,41.497z"/>
				<path d="M95.474,41.146l-0.355,1.172H94.34l1.325-4.132h0.961l1.345,4.132h-0.812l-0.373-1.172H95.474z M96.655,40.577
					l-0.324-1.018c-0.078-0.252-0.146-0.533-0.208-0.775h-0.012c-0.062,0.242-0.123,0.529-0.196,0.775l-0.317,1.018H96.655z"/>
				<path d="M99.771,38.187h0.753v3.5h1.7v0.632h-2.453V38.187z"/>
				<path d="M106.329,40.485h-1.556v1.213h1.74v0.62h-2.494v-4.132h2.403v0.619h-1.649v1.066h1.556V40.485z"/>
			</g>
		</g>
		<g>
			<g>
				<path d="M3.995,34.597c0.784,0.604,1.51,1.194,2.269,1.741c1.141,0.82,2.346,1.553,3.636,2.119
					c1.045,0.458,2.101,0.906,3.181,1.271c1.669,0.562,3.399,0.86,5.157,1.012c1.348,0.117,2.69,0.105,4.029-0.024
					c2.154-0.209,4.237-0.724,6.253-1.529c1.608-0.642,3.11-1.47,4.519-2.468c1.082-0.768,2.092-1.622,3.02-2.579
					c1.562-1.599,2.856-3.388,3.879-5.369c0.681-1.317,1.218-2.689,1.624-4.116c0.438-1.539,0.712-3.106,0.819-4.703
					c0.093-1.427,0.064-2.849-0.102-4.272c-0.258-2.197-0.81-4.312-1.644-6.361c-0.576-1.414-1.281-2.758-2.083-4.054
					c-0.031-0.05-0.048-0.106-0.097-0.214c0.091,0.055,0.136,0.073,0.169,0.104c0.981,0.871,1.851,1.841,2.632,2.894
					c1.332,1.785,2.319,3.75,3.029,5.855c0.478,1.419,0.791,2.875,0.965,4.368c0.269,2.291,0.213,4.564-0.203,6.827
					c-0.512,2.782-1.502,5.387-2.975,7.804c-1.13,1.855-2.484,3.526-4.076,5.003c-1.707,1.581-3.599,2.899-5.694,3.914
					c-2.524,1.221-5.184,1.983-7.988,2.238c-1.39,0.125-2.782,0.133-4.168,0.012c-1.945-0.167-3.84-0.585-5.682-1.244
					c-1.724-0.618-3.341-1.445-4.857-2.463c-1.581-1.063-2.977-2.344-4.204-3.798c-0.489-0.577-0.903-1.216-1.348-1.826
					C4.036,34.711,4.029,34.677,3.995,34.597z"/>
				<path d="M22.734,1.192c-0.099,0.027-0.194,0.061-0.293,0.079c-0.437,0.086-0.879,0.147-1.311,0.256
					c-0.614,0.151-1.234,0.298-1.825,0.519c-0.924,0.346-1.837,0.731-2.736,1.141c-0.549,0.25-1.088,0.539-1.588,0.875
					c-0.801,0.538-1.574,1.116-2.343,1.702c-0.859,0.657-1.605,1.438-2.282,2.276C9.881,8.633,9.417,9.24,9.014,9.883
					c-0.585,0.936-1.19,1.867-1.573,2.911c-0.392,1.069-0.789,2.132-1.006,3.26c-0.263,1.372-0.437,2.743-0.396,4.139
					c0.039,1.33,0.164,2.646,0.56,3.925c0.209,0.679,0.37,1.379,0.617,2.042c0.271,0.727,0.566,1.451,0.944,2.128
					c0.462,0.818,1.009,1.594,1.542,2.372c0.295,0.431,0.62,0.847,0.964,1.237c0.613,0.701,1.272,1.356,2.015,1.924
					c0.53,0.405,1.033,0.853,1.587,1.225c0.71,0.475,1.429,0.957,2.198,1.321c1.078,0.507,2.19,0.956,3.319,1.34
					c0.848,0.289,1.745,0.433,2.62,0.643c0.013,0.003,0.023,0.023,0.066,0.068c-0.325,0.048-0.625,0.1-0.924,0.133
					c-0.282,0.029-0.566,0.044-0.848,0.06c-0.333,0.016-0.668,0.05-0.999,0.035c-0.495-0.02-0.992-0.043-1.48-0.118
					c-0.889-0.135-1.777-0.29-2.658-0.478c-0.441-0.098-0.869-0.271-1.291-0.437c-0.571-0.226-1.141-0.456-1.691-0.727
					c-0.602-0.289-1.198-0.604-1.769-0.949c-0.463-0.282-0.889-0.621-1.323-0.947c-0.397-0.297-0.801-0.59-1.169-0.92
					c-0.438-0.392-0.858-0.805-1.25-1.238c-0.489-0.541-0.991-1.081-1.4-1.684c-0.542-0.795-0.996-1.651-1.5-2.474
					c-0.638-1.048-0.988-2.208-1.369-3.361c-0.402-1.218-0.663-2.461-0.732-3.736c-0.059-1.09-0.099-2.185-0.043-3.272
					c0.074-1.418,0.358-2.81,0.76-4.175c0.382-1.302,0.919-2.544,1.57-3.728C5.034,9.17,5.841,8.028,6.791,6.982
					c1.106-1.218,2.318-2.298,3.693-3.202c0.967-0.637,1.985-1.179,3.055-1.615c0.69-0.285,1.413-0.506,2.137-0.698
					c0.75-0.2,1.51-0.393,2.279-0.476c0.999-0.108,2.008-0.212,3.018-0.089c0.543,0.066,1.089,0.114,1.633,0.174
					c0.041,0.005,0.078,0.021,0.117,0.031C22.727,1.135,22.73,1.164,22.734,1.192z"/>
				<path d="M12.756,11.458c0.566-1.558,1.431-2.918,2.528-4.093c2.266-2.426,5.054-3.991,8.342-4.518
					c6.858-1.097,12.016,2.458,14.41,6.548c1.995,3.412,2.511,7.095,1.572,10.951c-0.725,2.977-2.26,5.212-3.822,6.618
					c0.1-0.304,0.164-0.545,0.254-0.775c0.476-1.238,0.791-2.525,1-3.831c0.187-1.158,0.246-2.335,0.163-3.504
					c-0.063-0.872-0.2-1.742-0.376-2.597c-0.254-1.233-0.702-2.408-1.307-3.514c-0.512-0.935-1.1-1.814-1.843-2.592
					c-0.634-0.666-1.315-1.275-2.079-1.781c-0.775-0.513-1.603-0.93-2.475-1.271c-0.799-0.312-1.626-0.479-2.455-0.66
					c-0.349-0.078-0.713-0.124-1.071-0.125c-0.818-0.004-1.64-0.019-2.454,0.057c-0.706,0.068-1.408,0.234-2.101,0.396
					c-0.569,0.132-1.141,0.281-1.683,0.496c-0.997,0.393-2,0.79-2.893,1.402c-0.67,0.464-1.343,0.919-1.993,1.408
					C13.897,10.505,13.35,10.976,12.756,11.458z"/>
			</g>
			<g>
				<g>
					<path d="M27.245,32.447c-0.636-0.8-0.892-1.731-0.906-2.735c-0.011-0.856,0.004-1.714-0.007-2.569
						c-0.009-0.696-0.003-1.397-0.068-2.088c-0.117-1.227-0.573-2.335-1.307-3.329c-0.016-0.02-0.059-0.02-0.09-0.034
						c-0.011-0.044-0.01-0.102-0.036-0.136c-0.46-0.591-1.004-1.096-1.606-1.54c-0.699-0.518-1.459-0.936-2.254-1.284
						c-0.271-0.119-0.546-0.227-0.837-0.348c-0.004,0.076-0.009,0.115-0.009,0.157c0,2.572,0,5.147,0,7.718
						c0,0.05,0.018,0.1,0.029,0.147c-0.011,0.064-0.031,0.125-0.028,0.188c0.021,0.453,0.017,0.905,0.069,1.351
						c0.137,1.145,0.536,2.193,1.214,3.13c0.675,0.929,1.542,1.628,2.575,2.127c1.131,0.548,2.309,0.764,3.548,0.456
						c0.276-0.068,0.545-0.17,0.78-0.375C27.878,33.083,27.529,32.805,27.245,32.447z"/>
					<path d="M26.228,13.976c-0.02-0.067-0.074-0.124-0.113-0.183c-0.016-0.081-0.021-0.172-0.056-0.246
						c-0.277-0.591-0.694-1.063-1.248-1.409c-0.189-0.117-0.405-0.191-0.609-0.285c-0.086-0.037-0.169-0.081-0.257-0.107
						c-0.672-0.201-1.348-0.195-2.004,0.04c-1.155,0.41-1.903,1.202-2.21,2.407c-0.169,0.67-0.13,1.32,0.104,1.964
						c0.726,1.989,3.092,2.825,4.902,1.732C26.081,17.081,26.689,15.479,26.228,13.976z"/>
				</g>
			</g>
		</g>
	</g>
</g>
</svg>
