<?xml version="1.0" encoding="utf-8"?>
<!-- Generator: Adobe Illustrator 16.0.0, SVG Export Plug-In . SVG Version: 6.00 Build 0)  -->
<!DOCTYPE svg PUBLIC "-//W3C//DTD SVG 1.1//EN" "http://www.w3.org/Graphics/SVG/1.1/DTD/svg11.dtd">
<svg version="1.1" id="Layer_1" xmlns="http://www.w3.org/2000/svg" xmlns:xlink="http://www.w3.org/1999/xlink" x="0px" y="0px"
	 width="154px" height="66px" viewBox="0 0 154 66" enable-background="new 0 0 154 66" xml:space="preserve">
<g>
	<g>
		<g>
			<path d="M80.242,14.534c0,1.927-1.425,3.437-3.693,3.437c-2.163,0-3.587-1.51-3.587-3.437c0-1.979,1.477-3.489,3.64-3.489
				C78.817,11.044,80.189,12.555,80.242,14.534z M73.332,46.979V21.616h6.541v25.362H73.332z"/>
			<path d="M84.46,12.347c2.321-0.417,5.539-0.729,9.917-0.729c4.747,0,8.229,0.99,10.497,2.864c2.11,1.719,3.481,4.479,3.481,7.76
				c0,3.333-1.055,6.093-3.06,7.968c-2.584,2.552-6.646,3.75-11.235,3.75c-1.213,0-2.321-0.052-3.165-0.208v13.228H84.46V12.347z
				 M90.896,28.699c0.791,0.208,1.847,0.26,3.165,0.26c4.853,0,7.807-2.344,7.807-6.458c0-3.906-2.743-5.989-7.227-5.989
				c-1.793,0-3.06,0.156-3.745,0.313V28.699z"/>
			<path d="M134.147,34.063c0,9.321-6.646,13.488-13.188,13.488c-7.279,0-12.87-4.948-12.87-13.072
				c0-8.332,5.538-13.436,13.292-13.436C129.031,21.043,134.147,26.355,134.147,34.063z M114.789,34.323
				c0,4.896,2.426,8.593,6.382,8.593c3.693,0,6.277-3.593,6.277-8.696c0-3.958-1.793-8.489-6.225-8.489
				C116.635,25.73,114.789,30.105,114.789,34.323z"/>
			<path d="M136.519,41.094c1.477,0.885,4.272,1.822,6.594,1.822c2.849,0,4.114-1.146,4.114-2.812c0-1.719-1.055-2.604-4.22-3.698
				c-5.012-1.718-7.121-4.426-7.068-7.395c0-4.479,3.745-7.968,9.706-7.968c2.848,0,5.327,0.729,6.805,1.51l-1.267,4.531
				c-1.107-0.625-3.165-1.458-5.433-1.458c-2.321,0-3.587,1.094-3.587,2.656c0,1.615,1.213,2.396,4.483,3.542
				c4.642,1.667,6.805,4.01,6.857,7.759c0,4.583-3.64,7.916-10.444,7.916c-3.112,0-5.908-0.729-7.807-1.771L136.519,41.094z"/>
		</g>
		<g>
			<path d="M73.298,54.493c0.39-0.071,0.931-0.124,1.667-0.124c0.798,0,1.383,0.168,1.765,0.487
				c0.354,0.293,0.585,0.763,0.585,1.321c0,0.567-0.177,1.037-0.514,1.356c-0.435,0.435-1.117,0.638-1.888,0.638
				c-0.204,0-0.39-0.009-0.532-0.035v2.252h-1.082V54.493z M74.38,57.277c0.133,0.035,0.311,0.044,0.532,0.044
				c0.815,0,1.312-0.399,1.312-1.1c0-0.665-0.461-1.02-1.215-1.02c-0.301,0-0.514,0.027-0.629,0.054V57.277z"/>
			<path d="M85.324,57.339c0,2.004-1.214,3.147-2.863,3.147c-1.685,0-2.748-1.285-2.748-3.041c0-1.835,1.152-3.13,2.837-3.13
				C84.296,54.315,85.324,55.637,85.324,57.339z M80.865,57.428c0,1.215,0.611,2.181,1.658,2.181c1.055,0,1.648-0.975,1.648-2.225
				c0-1.126-0.559-2.19-1.648-2.19C81.441,55.193,80.865,56.195,80.865,57.428z"/>
			<path d="M89.122,54.413v5.976h-1.09v-5.976H89.122z"/>
			<path d="M92.144,60.389v-5.976h1.24l1.543,2.563c0.399,0.665,0.745,1.356,1.02,2.004h0.018c-0.07-0.798-0.098-1.569-0.098-2.482
				v-2.084h1.011v5.976h-1.126l-1.56-2.624c-0.382-0.656-0.78-1.392-1.073-2.065l-0.026,0.009c0.044,0.771,0.053,1.56,0.053,2.544
				v2.137H92.144z"/>
			<path d="M101.048,55.326h-1.702v-0.913h4.512v0.913h-1.72v5.063h-1.09V55.326z"/>
			<path d="M115.234,57.339c0,2.004-1.214,3.147-2.863,3.147c-1.685,0-2.748-1.285-2.748-3.041c0-1.835,1.152-3.13,2.837-3.13
				C114.206,54.315,115.234,55.637,115.234,57.339z M110.775,57.428c0,1.215,0.611,2.181,1.658,2.181
				c1.055,0,1.648-0.975,1.648-2.225c0-1.126-0.559-2.19-1.648-2.19C111.352,55.193,110.775,56.195,110.775,57.428z"/>
			<path d="M117.943,54.413h3.448v0.896h-2.358v1.649h2.199v0.896h-2.199v2.535h-1.09V54.413z"/>
			<path d="M127.803,59.201c0.354,0.203,0.887,0.381,1.445,0.381c0.7,0,1.091-0.328,1.091-0.815c0-0.452-0.302-0.719-1.064-0.993
				c-0.983-0.354-1.613-0.878-1.613-1.737c0-0.976,0.815-1.721,2.11-1.721c0.646,0,1.126,0.143,1.436,0.302l-0.266,0.878
				c-0.213-0.115-0.63-0.284-1.188-0.284c-0.692,0-0.993,0.373-0.993,0.719c0,0.461,0.346,0.674,1.144,0.983
				c1.037,0.391,1.542,0.913,1.542,1.773c0,0.957-0.727,1.791-2.27,1.791c-0.629,0-1.285-0.178-1.613-0.372L127.803,59.201z"/>
			<path d="M135.397,58.695l-0.514,1.693h-1.126l1.915-5.976h1.392l1.941,5.976h-1.17l-0.541-1.693H135.397z M137.108,57.871
				l-0.47-1.472c-0.115-0.363-0.213-0.771-0.302-1.117h-0.018c-0.089,0.346-0.177,0.763-0.283,1.117l-0.461,1.472H137.108z"/>
			<path d="M141.607,54.413h1.09v5.063h2.456v0.913h-3.546V54.413z"/>
			<path d="M151.089,57.738h-2.252v1.755h2.518v0.896h-3.607v-5.976h3.475v0.896h-2.385v1.543h2.252V57.738z"/>
		</g>
	</g>
	<g>
		<g>
			<path fill-rule="evenodd" clip-rule="evenodd" d="M37.915,45.727c-0.918-1.157-1.288-2.503-1.31-3.953
				c-0.017-1.238,0.006-2.477-0.009-3.714c-0.014-1.007-0.006-2.019-0.101-3.018c-0.168-1.775-0.827-3.377-1.886-4.813
				c-0.023-0.03-0.087-0.032-0.132-0.048c-0.016-0.066-0.014-0.146-0.052-0.196c-0.664-0.856-1.452-1.584-2.321-2.225
				c-1.013-0.747-2.108-1.352-3.259-1.856c-0.391-0.171-0.79-0.328-1.208-0.501c-0.007,0.108-0.015,0.167-0.015,0.223
				c0,3.72,0,7.44,0.001,11.159c0,0.071,0.027,0.141,0.042,0.212c-0.015,0.091-0.044,0.182-0.041,0.271
				c0.028,0.651,0.024,1.307,0.101,1.953c0.197,1.651,0.773,3.167,1.753,4.519c0.976,1.345,2.229,2.356,3.721,3.076
				c1.636,0.79,3.337,1.103,5.129,0.659c0.398-0.099,0.786-0.246,1.126-0.541C38.831,46.645,38.325,46.243,37.915,45.727z"/>
			<path fill-rule="evenodd" clip-rule="evenodd" d="M36.445,19.027c-0.029-0.095-0.108-0.176-0.164-0.264
				c-0.025-0.118-0.031-0.247-0.08-0.354c-0.402-0.855-1.004-1.541-1.805-2.038c-0.273-0.169-0.584-0.276-0.879-0.412
				c-0.124-0.053-0.244-0.117-0.372-0.155c-0.972-0.292-1.947-0.282-2.896,0.056c-1.669,0.594-2.752,1.738-3.195,3.48
				c-0.245,0.97-0.189,1.91,0.149,2.84c1.049,2.873,4.471,4.081,7.086,2.504C36.23,23.516,37.112,21.204,36.445,19.027z"/>
		</g>
		<g>
			<g>
				<path d="M35.589,56.942C20.313,56.942,7.93,44.56,7.93,29.285c0-14.67,11.422-26.671,25.858-27.598
					c-0.633-0.039-1.271-0.06-1.915-0.06C14.546,1.626,0.5,15.673,0.5,33s14.046,31.374,31.374,31.374S63.247,50.327,63.247,33
					c0-0.644-0.021-1.281-0.06-1.915C62.26,45.521,50.259,56.942,35.589,56.942z"/>
			</g>
			<g>
				<path d="M35.696,9.784C47.614,11.463,55.914,22.483,54.235,34.4c-1.611,11.446-11.84,19.553-23.205,18.69
					c0.49,0.1,0.985,0.187,1.487,0.257c13.518,1.904,26.021-7.511,27.923-21.029C62.346,18.802,52.93,6.3,39.412,4.396
					c-13.517-1.904-26.019,7.511-27.925,21.028c-0.069,0.502-0.122,1.002-0.162,1.5C13.635,15.765,24.252,8.172,35.696,9.784z"/>
			</g>
		</g>
	</g>
</g>
</svg>
