<svg xmlns="http://www.w3.org/2000/svg" width="15" height="9" viewBox="0 0 15 9">
  <defs>
    <style>
      .cls-1 {
        fill: #007aff;
        fill-rule: evenodd;
      }
    </style>
  </defs>
  <path class="cls-1" d="M7.515,0.135A9.143,9.143,0,0,0,.3,4.152a0.579,0.579,0,0,0,0,.692A9.138,9.138,0,0,0,7.515,8.865a9.143,9.143,0,0,0,7.212-4.017,0.579,0.579,0,0,0,0-.692A9.138,9.138,0,0,0,7.515.135Zm0.2,7.439A3.08,3.08,0,1,1,10.591,4.7,3.083,3.083,0,0,1,7.716,7.574ZM7.623,6.154A1.659,1.659,0,1,1,9.173,4.6,1.656,1.656,0,0,1,7.623,6.154Z"/>
</svg>
